<?xml version="1.0" encoding="UTF-8" standalone="no"?>
<svg width="13px" height="11px" viewBox="0 0 13 11" version="1.1" xmlns="http://www.w3.org/2000/svg" xmlns:xlink="http://www.w3.org/1999/xlink" xmlns:sketch="http://www.bohemiancoding.com/sketch/ns">
    <!-- Generator: Sketch 3.4.3 (16618) - http://www.bohemiancoding.com/sketch -->
    <title>assets-b</title>
    <desc>Created with Sketch.</desc>
    <defs></defs>
    <g id="Files-UserFLow" stroke="none" stroke-width="1" fill="none" fill-rule="evenodd" sketch:type="MSPage">
        <g id="assets-b" sketch:type="MSLayerGroup" transform="translate(-1.000000, -2.000000)">
            <rect id="Rectangle-12" sketch:type="MSShapeGroup" x="0" y="0" width="15" height="15"></rect>
            <path d="M2,11.0026083 L2,11.0026083 C2,11.5519304 2.44902623,12 3.00276013,12 L11.9972399,12 C12.553453,12 13,11.5541697 13,11.0026083 L13,5.9973917 C13,5.44806963 12.5509738,5 11.9972399,5 L7.99999422,5 L7.00236002,5 L6.99999702,4.0023686 C6.99868032,3.4464726 6.55040063,3 5.99408095,3 L3.00591905,3 C2.44359614,3 2,3.44513339 2,4.0048815 L2,11.0026083 Z M1,11.0026083 L1,11.0026083 L1,4.0048815 C1,2.89761602 1.88655484,2 3.00591905,2 L5.99408095,2 C7.10029642,2 7.9973681,2.89128252 7.99999422,4 L11.9972399,4 C13.1033337,4 14,4.89585781 14,5.9973917 L14,11.0026083 C14,12.1057373 13.1064574,13 11.9972399,13 L3.00276013,13 C1.89666625,13 1,12.1041422 1,11.0026083 L1,11.0026083 Z" id="Shape" fill="#000000" sketch:type="MSShapeGroup"></path>
        </g>
    </g>
</svg>