<?xml version="1.0" encoding="UTF-8" standalone="no"?>
<svg width="13px" height="13px" viewBox="0 0 13 13" version="1.1" xmlns="http://www.w3.org/2000/svg" xmlns:xlink="http://www.w3.org/1999/xlink" xmlns:sketch="http://www.bohemiancoding.com/sketch/ns">
    <!-- Generator: Sketch 3.4.3 (16618) - http://www.bohemiancoding.com/sketch -->
    <title>dashboard-active</title>
    <desc>Created with Sketch.</desc>
    <defs></defs>
    <g id="Files-UserFLow" stroke="none" stroke-width="1" fill="none" fill-rule="evenodd" sketch:type="MSPage">
        <g id="dashboard-active" sketch:type="MSLayerGroup" transform="translate(-1.000000, -1.000000)">
            <rect id="Rectangle-12" sketch:type="MSShapeGroup" x="0" y="0" width="15" height="15"></rect>
            <path d="M1,2.0093689 C1,1.45190985 1.45097518,1 1.99077797,1 L6.00922203,1 C6.55641359,1 7,1.44335318 7,2.0093689 L7,3.9906311 C7,4.54809015 6.54902482,5 6.00922203,5 L1.99077797,5 C1.44358641,5 1,4.55664682 1,3.9906311 L1,2.0093689 L1,2.0093689 Z" id="Shape" fill="#000000" sketch:type="MSShapeGroup"></path>
            <path d="M1,6.99703014 C1,6.4463856 1.45097518,6 1.99077797,6 L6.00922203,6 C6.55641359,6 7,6.45303631 7,6.99703014 L7,13.0029699 C7,13.5536144 6.54902482,14 6.00922203,14 L1.99077797,14 C1.44358641,14 1,13.5469637 1,13.0029699 L1,6.99703014 L1,6.99703014 Z" id="Shape" fill="#000000" sketch:type="MSShapeGroup"></path>
            <path d="M8,1.99703014 C8,1.4463856 8.45097518,1 8.99077797,1 L13.009222,1 C13.5564136,1 14,1.45303631 14,1.99703014 L14,8.00296986 C14,8.5536144 13.5490248,9 13.009222,9 L8.99077797,9 C8.44358641,9 8,8.54696369 8,8.00296986 L8,1.99703014 L8,1.99703014 Z" id="Shape" fill="#000000" sketch:type="MSShapeGroup"></path>
            <path d="M8,11.0093689 C8,10.4519098 8.45097518,10 8.99077797,10 L13.009222,10 C13.5564136,10 14,10.4433532 14,11.0093689 L14,12.9906311 C14,13.5480902 13.5490248,14 13.009222,14 L8.99077797,14 C8.44358641,14 8,13.5566468 8,12.9906311 L8,11.0093689 L8,11.0093689 Z" id="Shape" fill="#000000" sketch:type="MSShapeGroup"></path>
        </g>
    </g>
</svg>