<?xml version="1.0" encoding="UTF-8" standalone="no"?>
<svg width="18px" height="18px" viewBox="0 0 18 18" version="1.1" xmlns="http://www.w3.org/2000/svg" xmlns:xlink="http://www.w3.org/1999/xlink" xmlns:sketch="http://www.bohemiancoding.com/sketch/ns">
    <!-- Generator: Sketch 3.4 (15588) - http://www.bohemiancoding.com/sketch -->
    <title>fav-active</title>
    <desc>Created with Sketch.</desc>
    <defs></defs>
    <g id="Files-UserFLow" stroke="none" stroke-width="1" fill="none" fill-rule="evenodd" sketch:type="MSPage">
        <g id="fav-active" sketch:type="MSLayerGroup">
            <path d="M3.43769595,18 L9.0150519,15.4297146 L14.5623056,17.9999999 L13.9732109,11.6139659 L18,6.87539472 L12.0718573,5.54547082 L9,0 L5.97031829,5.5160101 L-2.61124455e-13,6.87539472 L4.05027891,11.6383861 L3.54976129,16.8362125 L3.43769595,18 Z" id="Shape-Copy" fill="#F6A623" sketch:type="MSShapeGroup"></path>
            <path d="M5.36810133,11.4798375 L5.39686456,11.1811342 L5.20661421,10.9572549 L2.48503991,7.70377788 L6.49407224,6.79095939 L6.77314036,6.72741824 L6.9168505,6.46798535 L9.01504257,2.73453225 L11.0831511,6.46798548 L11.2268613,6.72741824 L11.5059293,6.79095938 L15.5534547,7.70931337 L12.7933873,10.957255 L12.603137,11.1811342 L12.6319002,11.4798375 L13.0764802,15.8224956 L9.26129147,14.0547518 L9.0000001,13.9336841 L8.73870875,14.0547519 L4.97142423,15.8003 L5.36810133,11.4798375 Z M3.43769595,18 L9.0150519,15.4297146 L14.5623056,17.9999999 L13.9732109,11.6139659 L18,6.87539472 L12.0718573,5.54547082 L9,0 L5.97031829,5.5160101 L-1.13686838e-13,6.87539472 L4.05027891,11.6383861 L3.54976129,16.8362125 L3.43769595,18 Z" id="Shape-Copy" sketch:type="MSShapeGroup"></path>
        </g>
    </g>
</svg>