<?xml version="1.0" encoding="UTF-8" standalone="no"?>
<svg width="14px" height="14px" viewBox="0 0 14 14" version="1.1" xmlns="http://www.w3.org/2000/svg" xmlns:xlink="http://www.w3.org/1999/xlink" xmlns:sketch="http://www.bohemiancoding.com/sketch/ns">
    <!-- Generator: Sketch 3.4 (15588) - http://www.bohemiancoding.com/sketch -->
    <title>fav-hover</title>
    <desc>Created with Sketch.</desc>
    <defs></defs>
    <g id="Files-UserFLow" stroke="none" stroke-width="1" fill="none" fill-rule="evenodd" sketch:type="MSPage">
        <g id="fav-hover" sketch:type="MSLayerGroup">
            <path d="M2.65268729,13.209838 L6.95643649,11.3235572 L11.2369574,13.2098379 L10.7823843,8.52325606 L13.8896435,5.04571393 L9.31521081,4.06970952 L6.94482174,0 L4.60697736,4.04808889 L-2.27373675e-13,5.04571393 L3.12538501,8.54117754 L2.73916215,12.3557578 L2.65268729,13.209838 Z" id="Shape-Copy" fill="#CCCCCC" sketch:type="MSShapeGroup"></path>
            <path d="M4.14227854,8.42482187 L4.16447359,8.20560951 L4.0176675,8.04130903 L1.91757324,5.65364766 L5.01113045,4.98374853 L5.22647249,4.93711696 L5.33736597,4.74672438 L6.95642929,2.00681823 L8.55227877,4.74672447 L8.66317225,4.93711696 L8.87851421,4.98374853 L12.0017744,5.65771005 L9.87197712,8.0413091 L9.7251711,8.20560957 L9.74736615,8.42482187 L10.0904248,11.6118114 L7.14644648,10.3144997 L6.94482182,10.2256506 L6.74319716,10.3144998 L3.8361839,11.5955225 L4.14227854,8.42482187 Z M2.65268729,13.209838 L6.95643649,11.3235572 L11.2369574,13.2098379 L10.7823843,8.52325606 L13.8896435,5.04571393 L9.31521081,4.06970952 L6.94482174,0 L4.60697736,4.04808889 L-1.13686838e-13,5.04571393 L3.12538501,8.54117754 L2.73916215,12.3557578 L2.65268729,13.209838 Z" id="Shape-Copy" fill-opacity="0.14954144" fill="#000000" sketch:type="MSShapeGroup"></path>
        </g>
    </g>
</svg>