<?xml version="1.0" encoding="UTF-8" standalone="no"?>
<svg width="20px" height="16px" viewBox="0 0 20 16" version="1.1" xmlns="http://www.w3.org/2000/svg" xmlns:xlink="http://www.w3.org/1999/xlink" xmlns:sketch="http://www.bohemiancoding.com/sketch/ns">
    <!-- Generator: Sketch 3.4 (15588) - http://www.bohemiancoding.com/sketch -->
    <title>imgType</title>
    <desc>Created with Sketch.</desc>
    <defs></defs>
    <g id="Page-1" stroke="none" stroke-width="1" fill="none" fill-rule="evenodd" sketch:type="MSPage">
        <g id="imgType" sketch:type="MSLayerGroup" fill="#FFFFFF">
            <path d="M1,1.99406028 L1,1.99406028 L1,14.0059397 C1,14.5543046 1.44469713,15 1.99079514,15 L18.0092049,15 C18.5520556,15 19,14.552393 19,14.0059397 L19,1.99406028 C19,1.44569536 18.5553029,1 18.0092049,1 L1.99079514,1 C1.44794441,1 1,1.44760701 1,1.99406028 L1,1.99406028 Z M0,1.99406028 C0,0.892771196 0.898212381,0 1.99079514,0 L18.0092049,0 C19.1086907,0 20,0.894513756 20,1.99406028 L20,14.0059397 C20,15.1072288 19.1017876,16 18.0092049,16 L1.99079514,16 C0.891309342,16 0,15.1054862 0,14.0059397 L0,1.99406028 L0,1.99406028 Z" id="Shape" fill-opacity="0.60473279" sketch:type="MSShapeGroup"></path>
            <path d="M5.63085938,3.92285156 C5.83473011,3.41317472 6.26932789,3.35735893 6.60048306,3.79675367 L9.9214896,8.20324633 C10.2531272,8.64328123 10.9287782,8.80823159 11.4217351,8.57585144 L13.864886,7.42414856 C14.3618111,7.18989778 14.9769289,7.39367676 15.2420357,7.88532066 L17.5226127,12.1146793 C17.7862664,12.6036284 17.5553691,13 16.9991283,13 L3.00087166,13 C2.4481055,13 2.16678244,12.5830439 2.36914062,12.0771484 L5.63085938,3.92285156 Z" id="Rectangle-7" fill-opacity="0.60473279" sketch:type="MSShapeGroup"></path>
            <circle id="Oval-2" fill-opacity="0.6" sketch:type="MSShapeGroup" cx="15" cy="4" r="1"></circle>
        </g>
    </g>
</svg>