<?xml version="1.0" encoding="UTF-8" standalone="no"?>
<svg width="32px" height="32px" viewBox="0 0 32 32" version="1.1" xmlns="http://www.w3.org/2000/svg" xmlns:xlink="http://www.w3.org/1999/xlink" xmlns:sketch="http://www.bohemiancoding.com/sketch/ns">
    <!-- Generator: Sketch 3.4.1 (15681) - http://www.bohemiancoding.com/sketch -->
    <title>settings</title>
    <desc>Created with Sketch.</desc>
    <defs></defs>
    <g id="Page-1" stroke="none" stroke-width="1" fill="none" fill-rule="evenodd" sketch:type="MSPage">
        <g id="settings3" sketch:type="MSLayerGroup" fill="#999999">
            <g id="Layer_1" sketch:type="MSShapeGroup">
                <g id="settings">
                    <path d="M30.391,12.68 L27.327,12.066 C27.173,11.623 26.991,11.193 26.79,10.777 L28.526,8.173 C29.055,7.38 28.95,6.323 28.276,5.65 L26.352,3.726 C25.965,3.339 25.454,3.14 24.936,3.14 C24.553,3.14 24.166,3.25 23.829,3.476 L21.225,5.211 C20.807,5.009 20.377,4.829 19.934,4.675 L19.32,1.61 C19.134,0.674 18.312,0.002 17.359,0.002 L14.639,0.002 C13.686,0.002 12.865,0.675 12.678,1.61 L12.064,4.675 C11.621,4.829 11.191,5.01 10.775,5.211 L8.172,3.476 C7.833,3.25 7.447,3.14 7.063,3.14 C6.546,3.14 6.035,3.339 5.648,3.726 L3.725,5.65 C3.051,6.324 2.946,7.38 3.475,8.173 L5.21,10.777 C5.008,11.194 4.828,11.624 4.674,12.067 L1.608,12.68 C0.673,12.867 0,13.688 0,14.641 L0,17.361 C0,18.314 0.673,19.136 1.608,19.322 L4.673,19.937 C4.827,20.38 5.008,20.81 5.209,21.226 L3.475,23.83 C2.946,24.623 3.051,25.68 3.725,26.353 L5.649,28.277 C6.036,28.664 6.547,28.863 7.064,28.863 C7.448,28.863 7.835,28.752 8.172,28.527 L10.776,26.791 C11.193,26.994 11.623,27.174 12.066,27.328 L12.679,30.392 C12.866,31.328 13.687,32.001 14.64,32.001 L17.36,32.001 C18.313,32.001 19.135,31.327 19.321,30.392 L19.936,27.328 C20.379,27.174 20.809,26.992 21.225,26.791 L23.829,28.527 C24.167,28.752 24.554,28.863 24.936,28.863 C25.454,28.863 25.965,28.664 26.352,28.277 L28.276,26.353 C28.95,25.679 29.055,24.623 28.526,23.83 L26.79,21.226 C26.993,20.808 27.173,20.378 27.327,19.935 L30.391,19.322 C31.326,19.137 32,18.314 32,17.361 L32,14.641 C32,13.688 31.326,12.867 30.391,12.68 L30.391,12.68 Z M26.934,17.975 C26.239,18.114 25.67,18.61 25.438,19.28 C25.309,19.649 25.159,20.007 24.991,20.354 C24.68,20.993 24.733,21.747 25.126,22.336 L26.862,24.94 L24.938,26.864 L22.334,25.128 C22,24.905 21.613,24.792 21.225,24.792 C20.928,24.792 20.629,24.858 20.354,24.991 C20.006,25.159 19.649,25.311 19.278,25.44 C18.61,25.672 18.114,26.241 17.975,26.936 L17.36,30.002 L14.64,30.002 L14.027,26.936 C13.888,26.241 13.392,25.672 12.723,25.44 C12.354,25.311 11.995,25.161 11.648,24.993 C11.372,24.858 11.074,24.792 10.776,24.792 C10.387,24.792 10.001,24.905 9.667,25.128 L7.063,26.864 L5.139,24.94 L6.874,22.336 C7.267,21.746 7.318,20.992 7.011,20.356 C6.843,20.008 6.692,19.651 6.563,19.28 C6.331,18.612 5.761,18.116 5.067,17.977 L2.002,17.362 L2,14.641 L5.066,14.028 C5.76,13.889 6.33,13.393 6.562,12.724 C6.691,12.355 6.84,11.996 7.009,11.649 C7.319,11.011 7.267,10.257 6.873,9.668 L5.139,7.064 L7.062,5.14 L9.666,6.875 C10,7.098 10.387,7.211 10.775,7.211 C11.072,7.211 11.37,7.145 11.646,7.012 C11.993,6.844 12.351,6.693 12.721,6.564 C13.39,6.332 13.886,5.762 14.025,5.068 L14.639,2.003 L17.359,2.002 L17.972,5.068 C18.111,5.762 18.607,6.332 19.277,6.564 C19.646,6.693 20.004,6.842 20.351,7.011 C20.628,7.145 20.925,7.211 21.224,7.211 C21.613,7.211 21.999,7.098 22.333,6.875 L24.937,5.14 L26.861,7.064 L25.125,9.668 C24.732,10.258 24.682,11.011 24.988,11.648 C25.156,11.995 25.308,12.353 25.437,12.723 C25.669,13.392 26.238,13.888 26.933,14.027 L29.997,14.641 L30,17.361 L26.934,17.975 L26.934,17.975 Z" id="Shape"></path>
                    <path d="M16,9.001 C12.135,9.001 9,12.136 9,16.001 C9,19.867 12.135,23.001 16,23.001 C19.865,23.001 23,19.866 23,16.001 C23,12.136 19.865,9.001 16,9.001 L16,9.001 Z M16,22.127 C12.618,22.127 9.875,19.383 9.875,16.002 C9.875,12.62 12.618,9.877 16,9.877 C19.381,9.877 22.125,12.62 22.125,16.002 C22.125,19.383 19.381,22.127 16,22.127 L16,22.127 Z" id="Shape"></path>
                    <path d="M16,12.001 C13.79,12.001 12,13.791 12,16.001 C12,18.21 13.79,20.001 16,20.001 C18.209,20.001 20,18.21 20,16.001 C20,13.792 18.209,12.001 16,12.001 L16,12.001 Z M16,19.002 C14.344,19.002 13,17.658 13,16.002 C13,14.346 14.344,13.002 16,13.002 C17.656,13.002 19,14.346 19,16.002 C19,17.658 17.656,19.002 16,19.002 L16,19.002 Z" id="Shape"></path>
                </g>
            </g>
        </g>
    </g>
</svg>