<?xml version="1.0" encoding="UTF-8" standalone="no"?>
<svg width="12px" height="8px" viewBox="0 0 12 8" version="1.1" xmlns="http://www.w3.org/2000/svg" xmlns:xlink="http://www.w3.org/1999/xlink" xmlns:sketch="http://www.bohemiancoding.com/sketch/ns">
    <!-- Generator: Sketch 3.4.2 (15857) - http://www.bohemiancoding.com/sketch -->
    <title>video-type</title>
    <desc>Created with Sketch.</desc>
    <defs></defs>
    <g id="Files-UserFLow" stroke="none" stroke-width="1" fill="none" fill-rule="evenodd" sketch:type="MSPage">
        <g id="video-type" sketch:type="MSLayerGroup" transform="translate(-2.000000, -4.000000)">
            <rect id="Rectangle-69" sketch:type="MSShapeGroup" x="0" y="0" width="16" height="16"></rect>
            <path d="M10,6.61760123 L10,4.99703014 C10,4.45303631 9.5536144,4 9.00296986,4 L2.99703014,4 C2.45303631,4 2,4.4463856 2,4.99703014 L2,11.0029699 C2,11.5469637 2.4463856,12 2.99703014,12 L9.00296986,12 C9.54696369,12 10,11.5536144 10,11.0029699 L10,9.38308315 L13.1134741,10.9918546 C13.6023766,11.2444767 14,11.0007856 14,10.4467333 L14,5.55395108 C14,5.00342529 13.6030889,4.75583963 13.1134741,5.00882975 L10,6.61760123 Z" id="Rectangle-70" fill="#525252" sketch:type="MSShapeGroup"></path>
        </g>
    </g>
</svg>