<?xml version="1.0" encoding="UTF-8" standalone="no"?>
<svg width="13px" height="13px" viewBox="0 0 13 13" version="1.1" xmlns="http://www.w3.org/2000/svg" xmlns:xlink="http://www.w3.org/1999/xlink" xmlns:sketch="http://www.bohemiancoding.com/sketch/ns">
    <!-- Generator: Sketch 3.4.4 (17249) - http://www.bohemiancoding.com/sketch -->
    <title>createContent-w</title>
    <desc>Created with Sketch.</desc>
    <defs></defs>
    <g id="Files-UserFLow" stroke="none" stroke-width="1" fill="none" fill-rule="evenodd" sketch:type="MSPage">
        <g id="createContent-w" sketch:type="MSLayerGroup" transform="translate(-1.000000, -1.000000)">
            <rect id="Rectangle-12" sketch:type="MSShapeGroup" x="0" y="0" width="15" height="15"></rect>
            <path d="M1,1.9955775 C1,1.44573523 1.44483697,1 1.9955775,1 L11.0044225,1 C11.5542648,1 12,1.44483697 12,1.9955775 L12,11.0044225 C12,11.5542648 11.555163,12 11.0044225,12 L1.9955775,12 C1.44573523,12 1,11.555163 1,11.0044225 L1,1.9955775 Z M2,2 L11,2 L11,11 L2,11 L2,2 Z" id="Rectangle-25" fill="#FFFFFF" sketch:type="MSShapeGroup"></path>
            <path d="M7,6 L7,4 L6,4 L6,6 L4,6 L4,7 L6,7 L6,9 L7,9 L7,7 L9,7 L9,6 L7,6 Z" id="Rectangle-13" fill="#FFFFFF" sketch:type="MSShapeGroup"></path>
            <path d="M13,3 L13.0044225,3 C13.5542648,3 14,3.44483697 14,3.9955775 L14,12.007983 C14,13.1081436 13.0998238,14 12.007983,14 L3.9955775,14 C3.44573523,14 3,13.555163 3,13.0044225 L3,13 L11.9975267,13 C12.544239,13 13,12.5511774 13,11.9975267 L13,3 Z" id="Rectangle-25-Copy" fill="#FFFFFF" sketch:type="MSShapeGroup"></path>
        </g>
    </g>
</svg>