<?xml version="1.0" encoding="UTF-8" standalone="no"?>
<svg width="23px" height="22px" viewBox="0 0 23 22" version="1.1" xmlns="http://www.w3.org/2000/svg" xmlns:xlink="http://www.w3.org/1999/xlink" xmlns:sketch="http://www.bohemiancoding.com/sketch/ns">
    <!-- Generator: Sketch 3.5.2 (25235) - http://www.bohemiancoding.com/sketch -->
    <title>history</title>
    <desc>Created with Sketch.</desc>
    <defs></defs>
    <g id="Intro-page" stroke="none" stroke-width="1" fill="none" fill-rule="evenodd" sketch:type="MSPage">
        <g id="Desktop-HD-Copy-2" sketch:type="MSArtboardGroup" transform="translate(-326.000000, -578.000000)" fill="#000000">
            <path d="M337.335,597.370012 C341.930616,597.370012 345.67,593.630628 345.67,589.035012 C345.67,584.439396 341.930616,580.700012 337.335,580.700012 C332.739384,580.700012 329,584.439396 329,589.035012 C329,593.630628 332.739384,597.370012 337.335,597.370012 L337.335,597.370012 Z M337.327855,581.667278 C341.372862,581.667278 344.662411,584.956826 344.662411,589.001834 C344.662411,593.046841 341.372862,596.336389 337.327855,596.336389 C333.282847,596.336389 329.993299,593.046841 329.993299,589.001834 C329.993299,584.956826 333.282847,581.667278 337.327855,581.667278 Z M337.327855,583.500917 C337.529555,583.500917 337.694583,583.335889 337.694583,583.134189 L337.694583,582.400733 C337.694583,582.199033 337.529555,582.034006 337.327855,582.034006 C337.126155,582.034006 336.961127,582.199033 336.961127,582.400733 L336.961127,583.134189 C336.961127,583.335889 337.126155,583.500917 337.327855,583.500917 Z M337.327855,594.50275 C337.126155,594.50275 336.961127,594.667778 336.961127,594.869478 L336.961127,595.602934 C336.961127,595.804634 337.126155,595.969662 337.327855,595.969662 C337.529555,595.969662 337.694583,595.804634 337.694583,595.602934 L337.694583,594.869478 C337.694583,594.667778 337.529555,594.50275 337.327855,594.50275 Z M343.195499,589.368561 L343.928955,589.368561 C344.130655,589.368561 344.295683,589.203534 344.295683,589.001834 C344.295683,588.800133 344.130655,588.635106 343.928955,588.635106 L343.195499,588.635106 C342.993799,588.635106 342.828772,588.800133 342.828772,589.001834 C342.828772,589.203534 342.993799,589.368561 343.195499,589.368561 Z M331.46021,588.635106 L330.726755,588.635106 C330.525054,588.635106 330.360027,588.800133 330.360027,589.001834 C330.360027,589.203534 330.525054,589.368561 330.726755,589.368561 L331.46021,589.368561 C331.66191,589.368561 331.826938,589.203534 331.826938,589.001834 C331.826938,588.800133 331.66191,588.635106 331.46021,588.635106 Z M333.293849,593.035839 C333.389198,593.035839 333.48088,592.999167 333.554226,592.929488 L336.587065,589.896649 C336.803434,590.025004 337.056476,590.105684 337.327855,590.105684 C338.138323,590.105684 338.794766,589.449242 338.794766,588.638773 C338.794766,587.956659 338.325354,587.388231 337.694583,587.223204 L337.694583,585.334556 C337.694583,585.132855 337.529555,584.967828 337.327855,584.967828 C337.126155,584.967828 336.961127,585.132855 336.961127,585.334556 L336.961127,587.219537 C336.330355,587.384564 335.860944,587.952992 335.860944,588.635106 C335.860944,588.906484 335.941624,589.155859 336.069978,589.375896 L333.03714,592.408735 C332.894116,592.551759 332.894116,592.782797 333.03714,592.925821 C333.106818,592.999167 333.1985,593.035839 333.293849,593.035839 Z M337.327855,587.90165 C337.731255,587.90165 338.06131,588.231705 338.06131,588.635106 C338.06131,589.038506 337.731255,589.368561 337.327855,589.368561 C336.924454,589.368561 336.594399,589.038506 336.594399,588.635106 C336.594399,588.231705 336.924454,587.90165 337.327855,587.90165 Z M330.022637,581.667278 L332.927121,581.667278 C333.128822,581.667278 333.293849,581.50225 333.293849,581.30055 C333.293849,581.09885 333.128822,580.933822 332.927121,580.933822 L330.983464,580.933822 C332.787765,579.507251 335.006468,578.733456 337.327855,578.733456 C342.990132,578.733456 347.596233,583.339557 347.596233,589.001834 C347.596233,589.203534 347.76126,589.368561 347.962961,589.368561 C348.164661,589.368561 348.329688,589.203534 348.329688,589.001834 C348.329688,582.936156 343.393532,578 337.327855,578 C334.768095,578 332.325688,578.883814 330.360027,580.497416 L330.360027,578.366728 C330.360027,578.165028 330.194999,578 329.993299,578 C329.791599,578 329.626571,578.165028 329.626571,578.366728 L329.626571,581.667278 L329.952959,581.667278 C329.97863,581.670945 330.000634,581.670945 330.022637,581.667278 Z M329.388198,596.07968 C329.241507,596.219037 329.23784,596.450075 329.377196,596.596766 C329.446875,596.673779 329.545891,596.710452 329.64124,596.710452 C329.732922,596.710452 329.824604,596.677446 329.894283,596.607768 C330.040974,596.468411 330.048308,596.237373 329.905284,596.090682 C329.765928,595.943991 329.534889,595.940323 329.388198,596.07968 Z M329.212169,595.287548 C329.087481,595.126188 328.86011,595.096849 328.69875,595.221537 C328.53739,595.346224 328.508052,595.577263 328.632739,595.734956 C328.706085,595.830305 328.816103,595.87798 328.922454,595.87798 C329.003134,595.87798 329.080147,595.852309 329.149825,595.800967 C329.307518,595.676279 329.336856,595.445241 329.212169,595.287548 Z M331.012802,597.56126 C330.895449,597.726288 330.939457,597.953659 331.104484,598.071012 C331.170495,598.115019 331.240174,598.133356 331.313519,598.133356 C331.430872,598.133356 331.544558,598.078346 331.614236,597.975663 C331.731589,597.810635 331.687581,597.579597 331.522554,597.465911 C331.353859,597.352225 331.126488,597.392565 331.012802,597.56126 Z M328.607068,594.414736 C328.500717,594.242374 328.273346,594.191032 328.100984,594.297383 C327.928622,594.407401 327.87728,594.631105 327.983631,594.803467 C328.053309,594.913486 328.174329,594.975829 328.295349,594.975829 C328.36136,594.975829 328.427371,594.957493 328.489715,594.92082 C328.662077,594.814469 328.713419,594.587098 328.607068,594.414736 Z M326.700084,589.779297 L326.714753,589.779297 C326.916453,589.771962 327.074146,589.5996 327.066811,589.3979 C327.059477,589.196199 326.887115,589.038506 326.685414,589.045841 C326.483714,589.053176 326.326021,589.22187 326.333356,589.427238 C326.34069,589.621604 326.505718,589.779297 326.700084,589.779297 Z M332.424704,598.023337 C332.248675,597.924321 332.024971,597.990332 331.925954,598.170028 C331.830605,598.346058 331.896616,598.569762 332.076313,598.665111 C332.131322,598.698116 332.189998,598.712785 332.248675,598.712785 C332.380697,598.712785 332.505384,598.643107 332.571395,598.51842 C332.670412,598.34239 332.604401,598.118686 332.424704,598.023337 Z M326.850442,590.868478 C327.052142,590.83914 327.191499,590.655776 327.162161,590.454076 C327.132822,590.252375 326.945791,590.113019 326.747758,590.142357 C326.546058,590.171695 326.406701,590.358726 326.436039,590.556759 C326.46171,590.740123 326.619403,590.872145 326.7991,590.872145 C326.817436,590.872145 326.832106,590.872145 326.850442,590.868478 Z M328.093649,593.486914 C328.001967,593.303551 327.785598,593.230205 327.602234,593.31822 C327.41887,593.406234 327.345524,593.626271 327.433539,593.809635 C327.495883,593.93799 327.627905,594.015003 327.763594,594.015003 C327.814936,594.015003 327.869945,594.004001 327.921287,593.97833 C328.104651,593.890315 328.181664,593.670278 328.093649,593.486914 Z M327.099817,591.94299 C327.294183,591.891649 327.415203,591.693616 327.367528,591.495583 C327.316186,591.301217 327.118153,591.180197 326.92012,591.231539 C326.725754,591.279213 326.604734,591.477246 326.656076,591.675279 C326.696416,591.840307 326.846775,591.953992 327.011802,591.953992 C327.04114,591.953992 327.070479,591.950325 327.099817,591.94299 Z M327.675579,592.511419 C327.609568,592.32072 327.396866,592.221704 327.206168,592.291382 C327.015469,592.36106 326.92012,592.570095 326.989798,592.760793 C327.04114,592.911152 327.184164,593.002834 327.330855,593.002834 C327.374863,593.002834 327.415203,592.995499 327.45921,592.98083 C327.649908,592.911152 327.745258,592.702117 327.675579,592.511419 Z M330.161994,596.86081 C330.029972,597.014836 330.048308,597.245874 330.202334,597.377896 C330.272012,597.436573 330.35636,597.465911 330.440707,597.465911 C330.543391,597.465911 330.646075,597.421904 330.71942,597.337556 C330.851442,597.183531 330.833106,596.952492 330.67908,596.82047 C330.525054,596.688448 330.294016,596.706784 330.161994,596.86081 Z M346.752759,593.93799 C346.57673,593.838973 346.353026,593.901317 346.250342,594.077346 L346.254009,594.077346 C346.151325,594.253376 346.213669,594.47708 346.389698,594.576096 C346.444708,594.609102 346.507051,594.623771 346.569395,594.623771 C346.69775,594.623771 346.822437,594.55776 346.888448,594.440407 C346.991132,594.264377 346.928788,594.040673 346.752759,593.93799 Z M345.678247,594.968495 C345.560894,595.133522 345.597566,595.364561 345.762594,595.481914 C345.828605,595.529588 345.90195,595.551592 345.975296,595.551592 C346.092649,595.551592 346.202667,595.496583 346.276013,595.397566 C346.393366,595.232539 346.356693,595.005168 346.191665,594.884147 C346.026638,594.766794 345.795599,594.807135 345.678247,594.968495 Z M345.018137,595.800967 C344.882447,595.951325 344.897116,596.182364 345.047475,596.318053 C345.117153,596.380397 345.205168,596.409735 345.289515,596.409735 C345.392199,596.409735 345.491215,596.369395 345.564561,596.285048 C345.70025,596.134689 345.685581,595.903651 345.535223,595.767961 C345.381197,595.635939 345.150159,595.646941 345.018137,595.800967 Z M344.273679,596.560093 C344.123321,596.695783 344.112319,596.926821 344.251675,597.07718 C344.325021,597.154192 344.424037,597.194532 344.523054,597.194532 C344.611069,597.194532 344.699083,597.161527 344.768762,597.099183 C344.91912,596.959827 344.926455,596.728788 344.790765,596.582097 C344.655076,596.431739 344.42037,596.420737 344.273679,596.560093 Z M343.455876,597.234872 C343.294516,597.355893 343.26151,597.586931 343.382531,597.748291 C343.452209,597.847308 343.562227,597.894982 343.675913,597.894982 C343.752926,597.894982 343.829938,597.872979 343.892282,597.825304 C344.05731,597.704284 344.090315,597.473246 343.969295,597.311885 C343.848275,597.146858 343.617236,597.113852 343.455876,597.234872 Z M347.944624,589.735289 C347.742924,589.713286 347.563227,589.859977 347.541224,590.061677 C347.51922,590.263377 347.665911,590.443074 347.867611,590.465078 L347.907951,590.465078 C348.091315,590.465078 348.252676,590.325721 348.271012,590.135023 C348.293016,589.936989 348.146325,589.753626 347.944624,589.735289 Z M347.214836,592.94049 C347.027805,592.85981 346.811435,592.944157 346.730755,593.127521 C346.646408,593.314552 346.730755,593.530922 346.917786,593.611602 C346.965461,593.633606 347.016803,593.644607 347.064478,593.644607 C347.207501,593.644607 347.339523,593.56026 347.401867,593.424571 C347.482547,593.23754 347.3982,593.02117 347.214836,592.94049 Z M347.812602,590.828138 C347.614569,590.784131 347.420204,590.912485 347.379863,591.110518 C347.335856,591.308551 347.464211,591.502917 347.662244,591.543257 C347.687915,591.550592 347.713586,591.550592 347.739257,591.550592 C347.907951,591.550592 348.061977,591.433239 348.094983,591.260877 C348.13899,591.062844 348.010635,590.868478 347.812602,590.828138 Z M347.566895,591.898983 C347.376196,591.836639 347.167161,591.94299 347.108485,592.137356 C347.046141,592.328055 347.152492,592.53709 347.343191,592.599433 C347.379863,592.610435 347.420204,592.614102 347.456876,592.614102 C347.610902,592.614102 347.753926,592.515086 347.805268,592.36106 C347.867611,592.166694 347.76126,591.961327 347.566895,591.898983 Z M333.381864,598.481747 C333.194833,598.404734 332.982131,598.492749 332.905118,598.67978 C332.824438,598.866811 332.912452,599.079513 333.099483,599.160193 C333.147158,599.17853 333.194833,599.185864 333.242507,599.185864 C333.385531,599.185864 333.52122,599.101517 333.579897,598.96216 C333.65691,598.775129 333.568895,598.55876 333.381864,598.481747 Z M337.525888,599.266544 C337.324188,599.270212 337.162827,599.438906 337.166495,599.640607 C337.170162,599.842307 337.335189,600 337.533222,600 L337.540557,600 C337.742257,599.996333 337.903617,599.831305 337.89995,599.625938 C337.896283,599.424237 337.727588,599.262877 337.525888,599.266544 Z M335.413536,599.090515 C335.215503,599.053842 335.021137,599.182197 334.984464,599.383897 C334.947791,599.58193 335.076146,599.772629 335.277846,599.812969 C335.29985,599.816636 335.321854,599.816636 335.343857,599.816636 C335.51622,599.816636 335.670245,599.695616 335.706918,599.519587 C335.743591,599.321554 335.611569,599.127188 335.413536,599.090515 Z M336.466045,599.233539 C336.264344,599.215203 336.084648,599.365561 336.069978,599.567261 C336.051642,599.772629 336.202,599.948658 336.403701,599.966994 L336.403701,599.963327 C336.414703,599.966994 336.425704,599.966994 336.433039,599.966994 C336.623737,599.966994 336.785098,599.820303 336.799767,599.629605 C336.814436,599.427905 336.667745,599.251875 336.466045,599.233539 Z M334.383031,598.84114 C334.188665,598.782464 333.983297,598.892482 333.924621,599.083181 C333.869612,599.277546 333.975963,599.482914 334.170329,599.54159 C334.207001,599.552592 334.243674,599.556259 334.27668,599.556259 C334.434373,599.556259 334.581064,599.453576 334.628738,599.295883 C334.687415,599.101517 334.577396,598.896149 334.383031,598.84114 Z M342.572062,597.825304 C342.3997,597.931655 342.341024,598.155359 342.447375,598.327721 C342.513386,598.445074 342.638073,598.507418 342.762761,598.507418 C342.825104,598.507418 342.891115,598.492749 342.949792,598.456076 C343.122154,598.353392 343.18083,598.126021 343.074479,597.953659 C342.971795,597.781297 342.748092,597.72262 342.572062,597.825304 Z M340.650409,598.72012 C340.45971,598.782464 340.357026,598.991499 340.423037,599.185864 C340.474379,599.336223 340.617403,599.431572 340.767761,599.431572 C340.808102,599.431572 340.848442,599.424237 340.888782,599.413236 C341.07948,599.347225 341.182164,599.13819 341.116153,598.947491 C341.050142,598.753126 340.841107,598.654109 340.650409,598.72012 Z M341.636906,598.324054 C341.449875,598.408401 341.372862,598.624771 341.45721,598.808135 C341.519553,598.943824 341.651575,599.020837 341.790932,599.020837 C341.842274,599.020837 341.893616,599.009835 341.944958,598.987831 C342.128322,598.903484 342.209002,598.683447 342.120987,598.500083 C342.03664,598.316719 341.82027,598.236039 341.636906,598.324054 Z M339.630905,599.009835 C339.432872,599.053842 339.308185,599.251875 339.355859,599.449908 C339.392532,599.618603 339.546558,599.732289 339.711585,599.732289 C339.740924,599.732289 339.766595,599.732289 339.795933,599.724954 C339.990299,599.680947 340.114986,599.482914 340.070979,599.284881 C340.023304,599.086848 339.828938,598.965828 339.630905,599.009835 Z M338.585731,599.193199 C338.384031,599.21887 338.241007,599.402234 338.266678,599.600267 C338.288682,599.787298 338.446375,599.922987 338.629738,599.922987 C338.644408,599.922987 338.659077,599.922987 338.673746,599.91932 L338.673746,599.922987 C338.875446,599.897316 339.01847,599.713952 338.992799,599.512252 C338.970795,599.310552 338.787431,599.167528 338.585731,599.193199 Z" id="history" sketch:type="MSShapeGroup"></path>
        </g>
    </g>
</svg>