<?xml version="1.0" encoding="UTF-8" standalone="no"?>
<svg width="75px" height="75px" viewBox="0 0 75 75" version="1.1" xmlns="http://www.w3.org/2000/svg" xmlns:xlink="http://www.w3.org/1999/xlink" xmlns:sketch="http://www.bohemiancoding.com/sketch/ns">
    <!-- Generator: Sketch 3.5.1 (25234) - http://www.bohemiancoding.com/sketch -->
    <title>icon-edit</title>
    <desc>Created with Sketch.</desc>
    <defs></defs>
    <g id="Icons" stroke="none" stroke-width="1" fill="none" fill-rule="evenodd" sketch:type="MSPage">
        <g id="Artboard-1" sketch:type="MSArtboardGroup" transform="translate(-966.000000, -238.000000)" fill="#000000">
            <g id="icon-edit" sketch:type="MSLayerGroup" transform="translate(966.000000, 238.000000)">
                <path d="M59,1 L49.7,10.3 C48.8,11.2 48.8,12.6 49.7,13.4 L61.6,25.3 C62.5,26.2 63.9,26.2 64.7,25.3 L74,16 C74.9,15.1 74.9,13.7 74,12.9 L62.1,1 C61.3,0.1 59.9,0.1 59,1 L59,1 Z" id="Shape" sketch:type="MSShapeGroup"></path>
                <path d="M9.4,51.2 C8.9,51.4 8.5,51.6 8.2,51.9 L7.6,52.4 L1.1,67.4 C0.3,69.2 0.7,71.3 2.1,72.7 C3.5,74.1 5.6,74.5 7.4,73.7 L21.8,67.5 C22.5,67.2 23.1,66.7 23.4,66.1 C23.5,65.9 23.7,65.6 23.8,65.4 C25.3,61.8 21.8,57.6 19.6,55.4 C17.7,53.8 13.1,49.7 9.4,51.2 L9.4,51.2 Z" id="Shape" sketch:type="MSShapeGroup"></path>
                <path d="M14.2,45.8 C13.3,46.7 13.6,48.3 14.8,48.7 C17.6,49.8 20,51.9 21.6,53.5 C23.8,55.7 25.4,57.9 26.2,60 C26.7,61.2 28.3,61.6 29.2,60.6 L59.8,30 C60.5,29.3 60.5,28.1 59.8,27.4 L47.4,15 C46.7,14.3 45.5,14.3 44.8,15 L14.2,45.8 L14.2,45.8 Z" id="Shape" sketch:type="MSShapeGroup"></path>
            </g>
        </g>
    </g>
</svg>