<?xml version="1.0" encoding="UTF-8" standalone="no"?>
<svg width="20px" height="20px" viewBox="0 0 20 20" version="1.1" xmlns="http://www.w3.org/2000/svg" xmlns:xlink="http://www.w3.org/1999/xlink" xmlns:sketch="http://www.bohemiancoding.com/sketch/ns">
    <!-- Generator: Sketch 3.5.2 (25235) - http://www.bohemiancoding.com/sketch -->
    <title>lab</title>
    <desc>Created with Sketch.</desc>
    <defs></defs>
    <g id="Intro-page" stroke="none" stroke-width="1" fill="none" fill-rule="evenodd" sketch:type="MSPage">
        <g id="Desktop-HD-Copy-2" sketch:type="MSArtboardGroup" transform="translate(-326.000000, -529.000000)" fill="#000000">
            <path d="M332.985327,539 L334.446116,536.803444 C334.752121,536.343311 335,535.526308 335,534.978269 C335,534.978269 335,532.77479 335,531.681274 C335,531.018188 334.806152,529.692017 334.806152,529.692017 L337.200684,529.692017 C337.200684,529.692017 337,531.019979 337,531.68396 C337,532.77658 337,534.978838 337,534.978838 C337,535.526449 337.247982,536.343466 337.553884,536.803444 L339.014673,539 L332.985327,539 Z M332.543701,539.664062 L327.549872,547.173169 C327.248197,547.626792 327.444759,548 327.993398,548 L344.006602,548 C344.555054,548 344.753814,547.629815 344.450128,547.173169 L339.456299,539.664062 L332.543701,539.664062 Z M338,530.994934 C338,530.329956 338.240784,529 338.240784,529 L333.783691,529 C333.783691,529 334,530.34082 334,531.01123 C334,532.339844 334,535.008785 334,535.008785 C334,535.556218 333.740311,536.375107 333.427449,536.827018 L326.703412,546.539516 C325.767335,547.891627 326.343767,549 328.001387,549 L343.998613,549 C345.656919,549 346.237357,547.898404 345.296588,546.539516 L338.572551,536.827018 C338.25634,536.370269 338,535.551241 338,535.005789 L338,530.994934 Z M339.5,547 C340.328427,547 341,546.328427 341,545.5 C341,544.671573 340.328427,544 339.5,544 C338.671573,544 338,544.671573 338,545.5 C338,546.328427 338.671573,547 339.5,547 Z M334.5,544 C335.328427,544 336,543.328427 336,542.5 C336,541.671573 335.328427,541 334.5,541 C333.671573,541 333,541.671573 333,542.5 C333,543.328427 333.671573,544 334.5,544 Z M334.522095,543.48822 C335.074379,543.48822 335.522095,543.040505 335.522095,542.48822 C335.522095,541.935935 335.074379,541.48822 334.522095,541.48822 C333.96981,541.48822 333.522095,541.935935 333.522095,542.48822 C333.522095,543.040505 333.96981,543.48822 334.522095,543.48822 Z M339.522095,546.48822 C340.074379,546.48822 340.522095,546.040505 340.522095,545.48822 C340.522095,544.935935 340.074379,544.48822 339.522095,544.48822 C338.96981,544.48822 338.522095,544.935935 338.522095,545.48822 C338.522095,546.040505 338.96981,546.48822 339.522095,546.48822 Z" id="lab" sketch:type="MSShapeGroup"></path>
        </g>
    </g>
</svg>