<?xml version="1.0" encoding="UTF-8" standalone="no"?>
<svg width="40px" height="40px" viewBox="0 0 40 40" version="1.1" xmlns="http://www.w3.org/2000/svg" xmlns:xlink="http://www.w3.org/1999/xlink" xmlns:sketch="http://www.bohemiancoding.com/sketch/ns">
    <!-- Generator: Sketch 3.4.4 (17249) - http://www.bohemiancoding.com/sketch -->
    <title>loader</title>
    <desc>Created with Sketch.</desc>
    <defs></defs>
    <g id="Page-1" stroke="none" stroke-width="1" fill="none" fill-rule="evenodd" sketch:type="MSPage">
        <g id="loader" sketch:type="MSLayerGroup" fill="#FFFFFF">
            <path d="M24,0.400072462 C33.1289613,2.2531538 40,10.3241684 40,20 C40,31.045695 31.045695,40 20,40 C8.954305,40 0,31.045695 0,20 C0,10.3241684 6.87103872,2.2531538 16,0.400072462 L16,1.42179378 C7.42732627,3.25869417 1,10.8787558 1,20 C1,30.4934102 9.50658975,39 20,39 C30.4934102,39 39,30.4934102 39,20 C39,10.8787558 32.5726737,3.25869417 24,1.42179378 L24,0.400072462 L24,0.400072462 L24,0.400072462 Z" sketch:type="MSShapeGroup"></path>
        </g>
    </g>
</svg>