<?xml version="1.0" encoding="UTF-8" standalone="no"?>
<svg width="18px" height="20px" viewBox="0 0 18 20" version="1.1" xmlns="http://www.w3.org/2000/svg" xmlns:xlink="http://www.w3.org/1999/xlink" xmlns:sketch="http://www.bohemiancoding.com/sketch/ns">
    <!-- Generator: Sketch 3.5.2 (25235) - http://www.bohemiancoding.com/sketch -->
    <title>prototype</title>
    <desc>Created with Sketch.</desc>
    <defs></defs>
    <g id="Intro-page" stroke="none" stroke-width="1" fill="none" fill-rule="evenodd" sketch:type="MSPage">
        <g id="Desktop-HD-Copy-2" sketch:type="MSArtboardGroup" transform="translate(-326.000000, -480.000000)" fill="#000000">
            <path d="M343,486 L343,481.993398 C343,481.444946 342.551894,481 341.999128,481 L328.000872,481 C327.444631,481 327,481.444759 327,481.993398 L327,486 L343,486 Z M343,486.635498 L343,498.006602 C343,498.555241 342.555369,499 341.999128,499 L328.000872,499 C327.448106,499 327,498.555054 327,498.006602 L327,486.635498 L343,486.635498 Z M326,481.990795 C326,480.891309 326.892623,480 327.995089,480 L342.004911,480 C343.106768,480 344,480.898212 344,481.990795 L344,498.009205 C344,499.108691 343.107377,500 342.004911,500 L327.995089,500 C326.893232,500 326,499.101788 326,498.009205 L326,481.990795 Z M331,483 L339,483 L339,484 L331,484 L331,483 Z M328,488 L336,488 L336,498 L328,498 L328,488 Z M328.503784,488.484131 L335.503784,488.484131 L335.503784,497.484131 L328.503784,497.484131 L328.503784,488.484131 Z M337,488 L342,488 L342,493 L337,493 L337,488 Z M337.486206,488.488647 L341.486206,488.488647 L341.486206,492.488647 L337.486206,492.488647 L337.486206,488.488647 Z M337,494 L342,494 L342,498 L337,498 L337,494 Z M337.479492,494.494629 L341.479492,494.494629 L341.479492,497.494629 L337.479492,497.494629 L337.479492,494.494629 Z" id="prototype" sketch:type="MSShapeGroup"></path>
        </g>
    </g>
</svg>