<?xml version="1.0" encoding="UTF-8" standalone="no"?>
<svg width="18px" height="20px" viewBox="0 0 18 20" version="1.1" xmlns="http://www.w3.org/2000/svg" xmlns:xlink="http://www.w3.org/1999/xlink" xmlns:sketch="http://www.bohemiancoding.com/sketch/ns">
    <!-- Generator: Sketch 3.5.2 (25235) - http://www.bohemiancoding.com/sketch -->
    <title>style-guide</title>
    <desc>Created with Sketch.</desc>
    <defs></defs>
    <g id="Intro-page" stroke="none" stroke-width="1" fill="none" fill-rule="evenodd" sketch:type="MSPage">
        <g id="Desktop-HD-Copy-2" sketch:type="MSArtboardGroup" transform="translate(-326.000000, -432.000000)" fill="#000000">
            <path d="M326,433.990795 C326,432.891309 326.892623,432 327.995089,432 L342.004911,432 C343.106768,432 344,432.898212 344,433.990795 L344,450.009205 C344,451.108691 343.107377,452 342.004911,452 L327.995089,452 C326.893232,452 326,451.101788 326,450.009205 L326,433.990795 Z M327,433.993398 C327,433.444759 327.444631,433 328.000872,433 L341.999128,433 C342.551894,433 343,433.444946 343,433.993398 L343,450.006602 C343,450.555241 342.555369,451 341.999128,451 L328.000872,451 C327.448106,451 327,450.555054 327,450.006602 L327,433.993398 Z M332,442 L341,442 L341,443 L332,443 L332,442 Z M329,442 L331,442 L331,443 L329,443 L329,442 Z M332,446 L339,446 L339,447 L332,447 L332,446 Z M332,448 L337,448 L337,449 L332,449 L332,448 Z M329,446 L331,446 L331,447 L329,447 L329,446 Z M329,448 L331,448 L331,449 L329,449 L329,448 Z M332,444 L338,444 L338,445 L332,445 L332,444 Z M329,444 L331,444 L331,445 L329,445 L329,444 Z M332,440 L340,440 L340,441 L332,441 L332,440 Z M329,440 L331,440 L331,441 L329,441 L329,440 Z M332,438 L341,438 L341,439 L332,439 L332,438 Z M332,435 L338,435 L338,436 L332,436 L332,435 Z M329,438 L331,438 L331,439 L329,439 L329,438 Z" id="style-guide" sketch:type="MSShapeGroup"></path>
        </g>
    </g>
</svg>