<?xml version="1.0" encoding="utf-8"?>
<!-- Generator: Adobe Illustrator 16.0.0, SVG Export Plug-In . SVG Version: 6.00 Build 0)  -->
<!DOCTYPE svg PUBLIC "-//W3C//DTD SVG 1.1//EN" "http://www.w3.org/Graphics/SVG/1.1/DTD/svg11.dtd">
<svg version="1.1" id="Layer_1" xmlns="http://www.w3.org/2000/svg" xmlns:xlink="http://www.w3.org/1999/xlink" x="0px" y="0px"
	 width="128px" height="128px" viewBox="0 0 128 128" enable-background="new 0 0 128 128" xml:space="preserve">
<g>
	<g>
		<rect x="59.5" y="96.5" fill="#FFAB00" width="65" height="21"/>
		<path fill="#37474F" d="M124.5,119h-65c-0.8,0-1.5-0.7-1.5-1.5v-21c0-0.8,0.7-1.5,1.5-1.5h65c0.8,0,1.5,0.7,1.5,1.5v21
			C126,118.3,125.3,119,124.5,119z M61,116h62V98H61V116z"/>
	</g>
	<g>
		<g>
			<rect x="89" y="112" fill="#37474F" width="10" height="2"/>
		</g>
		<g>
			<rect x="89" y="108" fill="#37474F" width="10" height="2"/>
		</g>
		<g>
			<rect x="89" y="104" fill="#37474F" width="10" height="2"/>
		</g>
		<g>
			<rect x="89" y="100" fill="#37474F" width="10" height="2"/>
		</g>
	</g>
	<g>
		<g>
			<rect x="75" y="112" fill="#37474F" width="10" height="2"/>
		</g>
		<g>
			<rect x="75" y="108" fill="#37474F" width="10" height="2"/>
		</g>
		<g>
			<rect x="75" y="104" fill="#37474F" width="10" height="2"/>
		</g>
		<g>
			<rect x="75" y="100" fill="#37474F" width="10" height="2"/>
		</g>
	</g>
	<g>
		<g>
			<rect x="106" y="112" fill="#37474F" width="10" height="2"/>
		</g>
		<g>
			<rect x="106" y="108" fill="#37474F" width="10" height="2"/>
		</g>
		<g>
			<rect x="106" y="104" fill="#37474F" width="10" height="2"/>
		</g>
		<g>
			<rect x="106" y="100" fill="#37474F" width="10" height="2"/>
		</g>
	</g>
	<g>
		<path fill="#B0BEC5" d="M57.3,12.2c28.9,0,52.4,23.5,52.4,52.4c0,28.9-23.5,52.4-52.4,52.4C28.3,117,4.9,93.5,4.9,64.6
			C4.9,35.7,28.3,12.2,57.3,12.2z"/>
		<path fill="#37474F" d="M57.3,118.5c-29.7,0-53.9-24.2-53.9-53.9c0-29.7,24.2-53.9,53.9-53.9c29.7,0,53.9,24.2,53.9,53.9
			C111.1,94.3,87,118.5,57.3,118.5z M57.3,13.7c-28,0-50.9,22.8-50.9,50.9c0,28,22.8,50.9,50.9,50.9c28,0,50.9-22.8,50.9-50.9
			C108.1,36.6,85.3,13.7,57.3,13.7z"/>
	</g>
	<g>
		<path fill="#FFFFFF" d="M63.9,14.4c28.5,0,51.6,23.1,51.6,51.6c0,28.5-23.1,51.6-51.6,51.6c-28.5,0-51.6-23.1-51.6-51.6
			C12.3,37.5,35.4,14.4,63.9,14.4z"/>
		<path fill="#37474F" d="M63.9,119c-29.3,0-53.1-23.8-53.1-53.1c0-29.3,23.8-53.1,53.1-53.1s53.1,23.8,53.1,53.1
			C116.9,95.2,93.1,119,63.9,119z M63.9,15.9c-27.6,0-50.1,22.5-50.1,50.1c0,27.6,22.5,50.1,50.1,50.1s50.1-22.5,50.1-50.1
			C113.9,38.3,91.5,15.9,63.9,15.9z"/>
	</g>
	<g>
		<g>
			<g>
				<path fill="#FFAB00" d="M31.1,56.4c5.3,0,9.5,4.3,9.5,9.5c0,5.3-4.3,9.5-9.5,9.5c-5.3,0-9.5-4.3-9.5-9.5
					C21.6,60.7,25.8,56.4,31.1,56.4z"/>
				<path fill="#37474F" d="M31.1,77c-6.1,0-11-4.9-11-11c0-6.1,4.9-11,11-11c6.1,0,11,4.9,11,11C42.1,72,37.2,77,31.1,77z
					 M31.1,57.9c-4.4,0-8,3.6-8,8c0,4.4,3.6,8,8,8c4.4,0,8-3.6,8-8C39.1,61.5,35.5,57.9,31.1,57.9z"/>
			</g>
			<g>
				<path fill="#FFAB00" d="M96.7,56.4c5.3,0,9.5,4.3,9.5,9.5c0,5.3-4.3,9.5-9.5,9.5c-5.3,0-9.5-4.3-9.5-9.5
					C87.1,60.7,91.4,56.4,96.7,56.4z"/>
				<path fill="#37474F" d="M96.7,77c-6.1,0-11-4.9-11-11c0-6.1,4.9-11,11-11c6.1,0,11,4.9,11,11C107.7,72,102.7,77,96.7,77z
					 M96.7,57.9c-4.4,0-8,3.6-8,8c0,4.4,3.6,8,8,8c4.4,0,8-3.6,8-8C104.7,61.5,101.1,57.9,96.7,57.9z"/>
			</g>
		</g>
		<g>
			<g>
				<path fill="#FFAB00" d="M73.4,33.1c0,5.3-4.3,9.5-9.5,9.5c-5.3,0-9.5-4.3-9.5-9.5s4.3-9.5,9.5-9.5
					C69.1,23.6,73.4,27.9,73.4,33.1z"/>
				<path fill="#37474F" d="M63.9,44.2c-6.1,0-11-4.9-11-11s4.9-11,11-11c6.1,0,11,4.9,11,11S69.9,44.2,63.9,44.2z M63.9,25.1
					c-4.4,0-8,3.6-8,8s3.6,8,8,8c4.4,0,8-3.6,8-8S68.3,25.1,63.9,25.1z"/>
			</g>
			<g>
				<path fill="#FFAB00" d="M73.4,98.7c0,5.3-4.3,9.5-9.5,9.5c-5.3,0-9.5-4.2-9.5-9.5c0-5.3,4.3-9.5,9.5-9.5
					C69.1,89.2,73.4,93.5,73.4,98.7z"/>
				<path fill="#37474F" d="M63.9,109.7c-6.1,0-11-4.9-11-11s4.9-11,11-11c6.1,0,11,4.9,11,11S69.9,109.7,63.9,109.7z M63.9,90.7
					c-4.4,0-8,3.6-8,8s3.6,8,8,8c4.4,0,8-3.6,8-8S68.3,90.7,63.9,90.7z"/>
			</g>
		</g>
	</g>
	<g>
		<g>
			<path fill="#FFFFFF" d="M63.3,74.7c0.8,0,1.4,0.7,1.4,1.5c0,0.8-0.7,1.4-1.5,1.4c-0.8,0-1.5-0.7-1.4-1.5
				C61.9,75.3,62.5,74.7,63.3,74.7z"/>
		</g>
		<g>
			<path fill="#FFFFFF" d="M63.6,64.5c0.8,0,1.4,0.7,1.4,1.5c0,0.8-0.7,1.5-1.5,1.4c-0.8,0-1.5-0.7-1.4-1.5
				C62.1,65.1,62.8,64.5,63.6,64.5z"/>
		</g>
		<g>
			<path fill="#FFFFFF" d="M63.8,54.3c0.8,0,1.4,0.7,1.4,1.5c0,0.8-0.7,1.4-1.5,1.4c-0.8,0-1.5-0.7-1.4-1.5
				C62.3,54.9,63,54.3,63.8,54.3z"/>
		</g>
	</g>
	<g>
		<g>
			<path fill="#37474F" d="M72.3,66.1c0-0.8,0.7-1.4,1.5-1.4c0.8,0,1.4,0.7,1.4,1.5c0,0.8-0.7,1.4-1.5,1.4
				C72.9,67.6,72.2,66.9,72.3,66.1z"/>
			<path fill="#37474F" d="M73.7,68.1L73.7,68.1C73.7,68.1,73.7,68.1,73.7,68.1c-0.6,0-1-0.2-1.4-0.6c-0.4-0.4-0.6-0.9-0.6-1.4
				c0-1,0.9-1.9,1.9-1.9c0.6,0,1.1,0.2,1.5,0.6c0.4,0.4,0.5,0.9,0.5,1.4C75.6,67.3,74.8,68.1,73.7,68.1z M73.7,65.2
				c-0.5,0-1,0.4-1,0.9c0,0.3,0.1,0.5,0.3,0.7c0.2,0.2,0.4,0.3,0.6,0.3l0,0c0.5,0,0.9-0.4,0.9-0.9c0-0.2-0.1-0.5-0.3-0.7
				C74.2,65.4,74,65.2,73.7,65.2C73.7,65.2,73.7,65.2,73.7,65.2z"/>
		</g>
		<g>
			<path fill="#37474F" d="M62.1,65.9c0-0.8,0.7-1.4,1.5-1.4c0.8,0,1.5,0.7,1.4,1.5c0,0.8-0.7,1.4-1.5,1.4
				C62.7,67.4,62.1,66.7,62.1,65.9z"/>
			<path fill="#37474F" d="M63.5,67.9L63.5,67.9L63.5,67.9c-0.6,0-1-0.2-1.4-0.6c-0.4-0.4-0.6-0.9-0.6-1.4c0-1,0.9-1.9,1.9-1.9
				c1.2,0.1,2,1,2,2C65.5,67.1,64.6,67.9,63.5,67.9z M63.5,65c-0.5,0-0.9,0.4-1,0.9c0,0.3,0.1,0.5,0.3,0.7c0.2,0.2,0.4,0.3,0.6,0.3
				l0,0c0.5,0,0.9-0.4,1-0.9C64.5,65.4,64.1,65,63.5,65L63.5,65z"/>
		</g>
		<g>
			<path fill="#37474F" d="M51.9,65.6c0-0.8,0.7-1.4,1.5-1.4c0.8,0,1.4,0.7,1.4,1.5c0,0.8-0.7,1.4-1.5,1.4
				C52.5,67.1,51.9,66.4,51.9,65.6z"/>
			<path fill="#37474F" d="M53.4,67.6L53.4,67.6c-0.6,0-1.1-0.2-1.4-0.6c-0.4-0.4-0.5-0.9-0.5-1.4c0-1.1,0.9-1.9,1.9-1.9
				c1.1,0,2,0.9,2,2C55.3,66.8,54.4,67.6,53.4,67.6z M53.4,64.7c-0.5,0-1,0.4-1,0.9c0,0.2,0.1,0.5,0.3,0.7c0.2,0.2,0.4,0.3,0.7,0.3
				l0,0.5v-0.5c0.5,0,0.9-0.4,0.9-0.9C54.3,65.2,53.9,64.8,53.4,64.7L53.4,64.7z"/>
		</g>
	</g>
	<g>
		<g>
			<g>
				<path fill="#FFAB00" d="M47.4,36c3.7,3.7,3.7,9.7,0,13.5c-3.7,3.7-9.7,3.7-13.5,0c-3.7-3.7-3.7-9.7,0-13.5
					C37.7,32.3,43.7,32.3,47.4,36z"/>
				<path fill="#37474F" d="M40.7,53.8c-2.9,0-5.7-1.1-7.8-3.2c-2.1-2.1-3.2-4.8-3.2-7.8c0-3,1.1-5.7,3.2-7.8
					c2.1-2.1,4.8-3.2,7.8-3.2c2.9,0,5.7,1.1,7.8,3.2c2.1,2.1,3.2,4.9,3.2,7.8s-1.1,5.7-3.2,7.8C46.4,52.6,43.6,53.8,40.7,53.8z
					 M40.7,34.7c-2.1,0-4.1,0.8-5.7,2.4c-1.5,1.5-2.4,3.5-2.4,5.7c0,2.1,0.8,4.1,2.4,5.6c1.5,1.5,3.5,2.4,5.7,2.4s4.2-0.8,5.7-2.3
					c1.5-1.5,2.3-3.5,2.3-5.7s-0.8-4.2-2.4-5.7C44.8,35.6,42.8,34.7,40.7,34.7z"/>
			</g>
			<g>
				<path fill="#FFAB00" d="M93.8,82.4c3.7,3.7,3.7,9.8,0,13.5c-3.7,3.7-9.7,3.7-13.5,0c-3.7-3.7-3.7-9.7,0-13.5
					C84,78.7,90.1,78.7,93.8,82.4z"/>
				<path fill="#37474F" d="M87,100.1c-2.9,0-5.7-1.2-7.8-3.2c-2.1-2.1-3.2-4.8-3.2-7.8c0-3,1.1-5.7,3.2-7.8
					c2.1-2.1,4.8-3.2,7.8-3.2c2.9,0,5.7,1.1,7.8,3.2c4.3,4.3,4.3,11.3,0,15.6C92.8,99,90,100.1,87,100.1z M87,81.1
					c-2.1,0-4.2,0.8-5.7,2.3C79.9,85,79,87,79,89.1c0,2.1,0.8,4.1,2.3,5.6c1.5,1.5,3.5,2.4,5.7,2.4c2.1,0,4.2-0.8,5.7-2.4
					c3.1-3.1,3.1-8.2,0-11.3C91.2,81.9,89.2,81.1,87,81.1z"/>
			</g>
		</g>
		<g>
			<g>
				<path fill="#FFAB00" d="M93.8,49.5c-3.7,3.7-9.7,3.7-13.5,0c-3.7-3.7-3.7-9.7,0-13.5c3.7-3.7,9.7-3.7,13.5,0
					C97.5,39.7,97.5,45.8,93.8,49.5z"/>
				<path fill="#37474F" d="M87,53.8c-2.9,0-5.7-1.1-7.8-3.2C75,46.3,75,39.3,79.3,35c2.1-2.1,4.8-3.2,7.8-3.2
					c2.9,0,5.7,1.1,7.8,3.2c4.3,4.3,4.3,11.3,0,15.6C92.8,52.6,90,53.8,87,53.8z M87,34.7c-2.1,0-4.2,0.8-5.7,2.3
					c-3.1,3.1-3.1,8.2,0,11.3c1.5,1.5,3.5,2.3,5.7,2.3s4.2-0.8,5.7-2.3c3.1-3.1,3.1-8.2,0-11.3C91.2,35.6,89.2,34.7,87,34.7z"/>
			</g>
			<g>
				<path fill="#FFAB00" d="M47.4,95.8c-3.7,3.7-9.7,3.7-13.5,0c-3.7-3.7-3.7-9.7,0-13.5c3.7-3.7,9.7-3.7,13.5,0
					C51.1,86.1,51.1,92.2,47.4,95.8z"/>
				<path fill="#37474F" d="M40.7,100.1c-2.9,0-5.7-1.1-7.8-3.2c-2.1-2.1-3.2-4.8-3.2-7.8c0-2.9,1.1-5.7,3.2-7.8
					c2.1-2.1,4.8-3.2,7.8-3.2s5.7,1.1,7.8,3.2c2.1,2.1,3.2,4.9,3.2,7.8c0,2.9-1.2,5.7-3.2,7.8C46.4,99,43.6,100.1,40.7,100.1z
					 M40.7,81.1c-2.1,0-4.2,0.8-5.7,2.4c-1.5,1.5-2.4,3.5-2.4,5.7c0,2.1,0.8,4.1,2.4,5.6c1.5,1.5,3.5,2.4,5.7,2.4
					c2.1,0,4.1-0.8,5.7-2.4c1.5-1.5,2.3-3.5,2.4-5.6c0-2.2-0.8-4.2-2.4-5.7C44.8,81.9,42.8,81.1,40.7,81.1z"/>
			</g>
		</g>
	</g>
</g>
</svg>
