<?xml version="1.0" encoding="utf-8"?>
<!-- Generator: Adobe Illustrator 16.0.0, SVG Export Plug-In . SVG Version: 6.00 Build 0)  -->
<!DOCTYPE svg PUBLIC "-//W3C//DTD SVG 1.1//EN" "http://www.w3.org/Graphics/SVG/1.1/DTD/svg11.dtd">
<svg version="1.1" id="Layer_1" xmlns="http://www.w3.org/2000/svg" xmlns:xlink="http://www.w3.org/1999/xlink" x="0px" y="0px"
	 width="128px" height="128px" viewBox="0 0 128 128" enable-background="new 0 0 128 128" xml:space="preserve">
<g>
	<g>
		<polygon fill="#B0BEC5" stroke="#37474F" stroke-width="3" stroke-miterlimit="10" points="51.8,104.6 39.3,104.6 18.3,66.5 
			30.8,60.6 		"/>
		
			<path fill="#FFECB3" stroke="#37474F" stroke-width="3" stroke-linecap="round" stroke-linejoin="round" stroke-miterlimit="10" d="
			M24.2,58.1c0,5.7-4.7,10.4-10.4,10.4C8,68.5,3.4,63.8,3.4,58.1c0-5.7,4.7-10.4,10.4-10.4C19.5,47.7,24.2,52.3,24.2,58.1z"/>
		<path fill="#78909C" stroke="#37474F" stroke-width="3" stroke-miterlimit="10" d="M55.6,74c0,4.1-3.3,7.5-7.5,7.5H27.9
			c-4.2,0-7.5-3.4-7.5-7.5l0,0c0-4.1,3.3-7.5,7.5-7.5h20.2C52.2,66.5,55.6,69.9,55.6,74L55.6,74z"/>
		
			<path fill="#FFAB00" stroke="#37474F" stroke-width="3" stroke-linecap="round" stroke-linejoin="round" stroke-miterlimit="10" d="
			M85.5,72.1c0,5.4-4.3,9.8-9.7,9.8l-48.7-9.8c-5.4,0-9.6-4.4-9.6-9.8v-8.6c0-5.4,4.3-9.8,9.6-9.8l48.8-9.8c5.4,0,9.6,4.4,9.6,9.8
			V72.1z"/>
		<path fill="#FFFFFF" stroke="#37474F" stroke-width="3" stroke-linecap="round" stroke-miterlimit="10" d="M20.5,67.7
			c0,1.6-1.4,2.9-3,2.9l0,0c-1.6,0-3-1.3-3-2.9V48.4c0-1.6,1.4-2.9,3-2.9l0,0c1.6,0,3,1.3,3,2.9V67.7z"/>
		<path fill="#FFFFFF" stroke="#37474F" stroke-width="3" stroke-linecap="round" stroke-miterlimit="10" d="M87.5,80.9
			c0,2.2-1.7,4.1-4,4.1l0,0c-2.3,0-4-1.8-4-4.1V35.2c0-2.2,1.7-4.1,4-4.1l0,0c2.3,0,4,1.8,4,4.1V80.9z"/>
		
			<line fill="#FFECB3" stroke="#37474F" stroke-width="3" stroke-linecap="round" stroke-linejoin="round" stroke-miterlimit="10" x1="32" y1="90.5" x2="43" y2="90.5"/>
		
			<line fill="#FFECB3" stroke="#37474F" stroke-width="3" stroke-linecap="round" stroke-linejoin="round" stroke-miterlimit="10" x1="37" y1="97.5" x2="48" y2="97.5"/>
		
			<polygon fill="#FFECB3" stroke="#37474F" stroke-width="3" stroke-linecap="round" stroke-linejoin="round" stroke-miterlimit="10" points="
			41.5,75 59.5,78.6 59.5,37.6 41.5,41.1 		"/>
		<g>
			<path fill="#37474F" stroke="#37474F" stroke-miterlimit="10" d="M69,52.1c0.5,0,1-0.5,1-1c0-0.6-0.5-1-1-1c-0.6,0-1,0.4-1,1
				C68,51.6,68.5,52.1,69,52.1z"/>
			<path fill="#37474F" stroke="#37474F" stroke-miterlimit="10" d="M69,59.1c0.5,0,1-0.5,1-1c0-0.6-0.5-1-1-1c-0.6,0-1,0.4-1,1
				C68,58.6,68.5,59.1,69,59.1z"/>
			<path fill="#37474F" stroke="#37474F" stroke-miterlimit="10" d="M69,66c0.5,0,1-0.5,1-1c0-0.6-0.5-1-1-1c-0.6,0-1,0.4-1,1
				C68,65.6,68.5,66,69,66z"/>
		</g>
	</g>
	<g>
		
			<line fill="#37474F" stroke="#37474F" stroke-width="3" stroke-linecap="round" stroke-linejoin="round" stroke-miterlimit="10" x1="106.7" y1="23.1" x2="98.2" y2="31.6"/>
		
			<line fill="#37474F" stroke="#37474F" stroke-width="3" stroke-linecap="round" stroke-linejoin="round" stroke-miterlimit="10" x1="106.7" y1="90.2" x2="98.2" y2="81.7"/>
		
			<line fill="#37474F" stroke="#37474F" stroke-width="3" stroke-linecap="round" stroke-linejoin="round" stroke-miterlimit="10" x1="124" y1="56.5" x2="112" y2="56.5"/>
	</g>
</g>
</svg>
