<?xml version="1.0" encoding="utf-8"?>
<!-- Generator: Adobe Illustrator 16.0.0, SVG Export Plug-In . SVG Version: 6.00 Build 0)  -->
<!DOCTYPE svg PUBLIC "-//W3C//DTD SVG 1.1//EN" "http://www.w3.org/Graphics/SVG/1.1/DTD/svg11.dtd">
<svg version="1.1" id="Layer_1" xmlns="http://www.w3.org/2000/svg" xmlns:xlink="http://www.w3.org/1999/xlink" x="0px" y="0px"
	 width="128px" height="128px" viewBox="0 0 128 128" enable-background="new 0 0 128 128" xml:space="preserve">
<g>
	<g>
		<rect x="13" y="13" fill="#FFFFFF" width="102" height="102"/>
		<path fill="#37474F" d="M115,117H13c-1.1,0-2-0.9-2-2V13c0-1.1,0.9-2,2-2h102c1.1,0,2,0.9,2,2v102C117,116.1,116.1,117,115,117z
			 M15,113h98V15H15V113z"/>
	</g>
	<g>
		<rect x="13" y="13" fill="#FFECB3" width="102" height="22"/>
		<path fill="#37474F" d="M117,37H11V11h106V37z M15,33h98V15H15V33z"/>
	</g>
	<g>
		<g>
			<path fill="#37474F" d="M78.1,26.9c-1.4,0-2.5-1.1-2.5-2.5c0-1.4,1.1-2.5,2.5-2.5c1.4,0,2.5,1.1,2.5,2.5
				C80.6,25.7,79.5,26.9,78.1,26.9z"/>
			<path fill="#37474F" d="M78.1,27.4c-1.7,0-3-1.4-3-3s1.4-3,3-3c1.7,0,3,1.4,3,3S79.8,27.4,78.1,27.4z M78.1,22.3
				c-1.1,0-2,0.9-2,2s0.9,2,2,2c1.1,0,2-0.9,2-2S79.2,22.3,78.1,22.3z"/>
		</g>
		<g>
			<path fill="#37474F" d="M64.2,26.9c-1.4,0-2.5-1.1-2.5-2.5c0-1.4,1.1-2.5,2.5-2.5c1.4,0,2.5,1.1,2.5,2.5
				C66.7,25.7,65.6,26.9,64.2,26.9z"/>
			<path fill="#37474F" d="M64.2,27.4c-1.7,0-3-1.4-3-3s1.4-3,3-3c1.7,0,3,1.4,3,3S65.9,27.4,64.2,27.4z M64.2,22.3
				c-1.1,0-2,0.9-2,2s0.9,2,2,2c1.1,0,2-0.9,2-2S65.3,22.3,64.2,22.3z"/>
		</g>
		<g>
			<path fill="#37474F" d="M50.3,26.9c-1.4,0-2.5-1.1-2.5-2.5c0-1.4,1.1-2.5,2.5-2.5c1.4,0,2.5,1.1,2.5,2.5
				C52.9,25.7,51.7,26.9,50.3,26.9z"/>
			<path fill="#37474F" d="M50.3,27.4c-1.7,0-3-1.4-3-3s1.4-3,3-3c1.7,0,3,1.4,3,3S52,27.4,50.3,27.4z M50.3,22.3c-1.1,0-2,0.9-2,2
				s0.9,2,2,2c1.1,0,2-0.9,2-2S51.4,22.3,50.3,22.3z"/>
		</g>
	</g>
	<g>
		<g>
			<g>
				<path fill="#37474F" d="M55.8,79.7c-0.5,0-1-0.2-1.4-0.6c-0.8-0.8-0.8-2,0-2.8c2.9-2.9,4.5-6.7,4.5-10.8
					c0-8.4-6.8-15.2-15.2-15.2c-1.1,0-2-0.9-2-2s0.9-2,2-2c10.6,0,19.2,8.6,19.2,19.2c0,5.1-2,10-5.6,13.6
					C56.8,79.5,56.3,79.7,55.8,79.7z"/>
			</g>
			<g>
				<path fill="#37474F" d="M43.6,107.3c-1.1,0-2-0.9-2-2s0.9-2,2-2c8.4,0,15.2-6.8,15.2-15.2S52,72.8,43.6,72.8c-1.1,0-2-0.9-2-2
					s0.9-2,2-2c10.6,0,19.2,8.6,19.2,19.2S54.2,107.3,43.6,107.3z"/>
			</g>
		</g>
		<g>
			<path fill="#37474F" d="M85,108c-1.1,0-2-0.9-2-2V49h-8c-1.1,0-2-0.9-2-2s0.9-2,2-2h12v61C87,107.1,86.1,108,85,108z"/>
		</g>
	</g>
</g>
</svg>
