<?xml version="1.0" encoding="utf-8"?>
<!-- Generator: Adobe Illustrator 16.0.0, SVG Export Plug-In . SVG Version: 6.00 Build 0)  -->
<!DOCTYPE svg PUBLIC "-//W3C//DTD SVG 1.1//EN" "http://www.w3.org/Graphics/SVG/1.1/DTD/svg11.dtd">
<svg version="1.1" id="Layer_1" xmlns="http://www.w3.org/2000/svg" xmlns:xlink="http://www.w3.org/1999/xlink" x="0px" y="0px"
	 width="128px" height="128px" viewBox="0 0 128 128" enable-background="new 0 0 128 128" xml:space="preserve">
<g>
	<g>
		<g>
			<path fill="#78909C" d="M50.9,70.8C28.4,72,21.2,49.5,36.6,30.4"/>
			<path fill="#37474F" d="M49.2,72.8c-9.3,0-16.7-4-20.4-11.2c-4.8-9.3-2.4-21.8,6.3-32.5c0.7-0.9,2-1,2.8-0.3c0.9,0.7,1,2,0.3,2.8
				c-7.6,9.5-9.9,20.3-5.8,28.2c3.2,6.2,9.9,9.4,18.4,9c1.1-0.1,2,0.8,2.1,1.9c0.1,1.1-0.8,2-1.9,2.1C50.4,72.8,49.8,72.8,49.2,72.8
				z"/>
		</g>
		<g>
			<path fill="#78909C" d="M77.1,70.8c22.5,1.2,29.8-21.2,14.3-40.4"/>
			<path fill="#37474F" d="M78.8,72.8c-0.6,0-1.2,0-1.9-0.1c-1.1-0.1-1.9-1-1.9-2.1c0.1-1.1,1-1.9,2.1-1.9c8.6,0.5,15.3-2.8,18.4-9
				c4.1-7.9,1.8-18.7-5.8-28.2c-0.7-0.9-0.6-2.1,0.3-2.8c0.9-0.7,2.1-0.6,2.8,0.3c8.6,10.7,11,23.2,6.3,32.5
				C95.5,68.8,88.1,72.8,78.8,72.8z"/>
		</g>
	</g>
	<g>
		<g>
			<path fill="#B0BEC5" d="M43.9,91.4l-11.8,4c-7.8,0-14.2,1.9-14.2,9.1L10.4,124h107.3l-7.6-19.5c0-7.1-6.3-9-14.2-9l-12.8-4"/>
			<path fill="#37474F" d="M117.6,126H10.4c-0.7,0-1.3-0.3-1.7-0.9c-0.4-0.5-0.5-1.2-0.2-1.9l7.5-19.2c0.2-7,5.5-10.6,15.8-10.7
				l11.5-3.9c1-0.4,2.2,0.2,2.5,1.3s-0.2,2.2-1.3,2.5l-11.8,4c-0.2,0.1-0.4,0.1-0.6,0.1c-10.8,0-12.2,3.8-12.2,7.1
				c0,0.2,0,0.5-0.1,0.7L13.3,122h101.4l-6.5-16.8c-0.1-0.2-0.1-0.5-0.1-0.7c0-3.3-1.4-7-12.2-7c-0.2,0-0.4,0-0.6-0.1l-12.8-4
				c-1.1-0.3-1.6-1.5-1.3-2.5c0.3-1.1,1.5-1.6,2.5-1.3l12.5,3.9c10.3,0.1,15.7,3.6,15.9,10.6l7.5,19.2c0.2,0.6,0.2,1.3-0.2,1.9
				C118.9,125.7,118.3,126,117.6,126z"/>
		</g>
		<g>
			<path fill="#78909C" d="M32.8,20.3c7.8-8.2,16.7-16,31.2-16c14.5,0,26.2,10.9,26.2,24.3"/>
			<path fill="#37474F" d="M90.2,30.6c-1.1,0-2-0.9-2-2C88.2,16.3,77.4,6.3,64,6.3c-14.1,0-22.7,7.9-29.7,15.4
				c-0.8,0.8-2,0.8-2.8,0.1c-0.8-0.8-0.8-2-0.1-2.8c7.6-8,16.9-16.6,32.6-16.6c15.6,0,28.2,11.8,28.2,26.3
				C92.2,29.7,91.4,30.6,90.2,30.6z"/>
		</g>
		<g>
			<path fill="#FFFFFF" d="M42.7,37.6C42.7,54.9,50.6,75,64,75s21.3-20.1,21.3-37.4"/>
			<path fill="#37474F" d="M64,77c-14.4,0-23.3-20.4-23.3-39.4c0-1.1,0.9-2,2-2s2,0.9,2,2C44.7,54.7,52.5,73,64,73
				c11.5,0,19.3-18.3,19.3-35.4c0-1.1,0.9-2,2-2s2,0.9,2,2C87.3,56.6,78.4,77,64,77z"/>
		</g>
		<g>
			<g>
				<g>
					<circle fill="#FFFFFF" cx="52.8" cy="43.3" r="8.3"/>
					<path fill="#37474F" d="M52.8,53.6c-5.7,0-10.3-4.6-10.3-10.3S47.1,33,52.8,33c5.7,0,10.3,4.6,10.3,10.3S58.4,53.6,52.8,53.6z
						 M52.8,37c-3.5,0-6.3,2.8-6.3,6.3s2.8,6.3,6.3,6.3c3.5,0,6.3-2.8,6.3-6.3S56.2,37,52.8,37z"/>
				</g>
				<g>
					<line fill="#FFFFFF" x1="39" y1="44" x2="44" y2="44"/>
					<path fill="#37474F" d="M44,46h-5c-1.1,0-2-0.9-2-2s0.9-2,2-2h5c1.1,0,2,0.9,2,2S45.1,46,44,46z"/>
				</g>
			</g>
			<g>
				<g>
					<circle fill="#FFFFFF" cx="75.3" cy="43.3" r="8.3"/>
					<path fill="#37474F" d="M75.2,53.6c-5.7,0-10.3-4.6-10.3-10.3S69.6,33,75.2,33c5.7,0,10.3,4.6,10.3,10.3S80.9,53.6,75.2,53.6z
						 M75.2,37c-3.5,0-6.3,2.8-6.3,6.3s2.8,6.3,6.3,6.3c3.5,0,6.3-2.8,6.3-6.3S78.7,37,75.2,37z"/>
				</g>
				<g>
					<line fill="#FFFFFF" x1="89" y1="43" x2="84" y2="43"/>
					<path fill="#37474F" d="M89,45h-5c-1.1,0-2-0.9-2-2s0.9-2,2-2h5c1.1,0,2,0.9,2,2S90.1,45,89,45z"/>
				</g>
			</g>
		</g>
		<g>
			<g>
				<line fill="#FFFFFF" x1="55" y1="73" x2="55" y2="87"/>
				<path fill="#37474F" d="M55,89c-1.1,0-2-0.9-2-2V73c0-1.1,0.9-2,2-2s2,0.9,2,2v14C57,88.1,56.1,89,55,89z"/>
			</g>
			<g>
				<line fill="#FFFFFF" x1="73" y1="73" x2="73" y2="87"/>
				<path fill="#37474F" d="M73,89c-1.1,0-2-0.9-2-2V73c0-1.1,0.9-2,2-2s2,0.9,2,2v14C75,88.1,74.1,89,73,89z"/>
			</g>
		</g>
		<g>
			<path fill="#FFFFFF" d="M82.5,89.5c0,4.7-8.3,8.5-18.5,8.5s-18.5-3.8-18.5-8.5"/>
			<path fill="#37474F" d="M64,100c-11.7,0-20.5-4.5-20.5-10.5c0-1.1,0.9-2,2-2s2,0.9,2,2c0,3.1,7.1,6.5,16.5,6.5s16.5-3.4,16.5-6.5
				c0-1.1,0.9-2,2-2s2,0.9,2,2C84.5,95.5,75.7,100,64,100z"/>
		</g>
		<g>
			<path fill="#78909C" d="M81.3,24c0,6.9-22.4,9.7-31.6,9.7c-9.2,0-16.7-5.6-16.7-12.5"/>
			<path fill="#37474F" d="M49.8,35.7c-10.3,0-18.7-6.5-18.7-14.5c0-1.1,0.9-2,2-2s2,0.9,2,2c0,5.8,6.6,10.5,14.7,10.5
				c12.6,0,29.6-3.8,29.6-7.7c0-1.1,0.9-2,2-2s2,0.9,2,2C83.3,35,50.1,35.7,49.8,35.7z"/>
		</g>
	</g>
	<g>
		<path fill="#FFAB00" d="M87.8,123.7C83.4,115,74.4,109,64,109s-19.4,6-23.8,14.7"/>
		<path fill="#37474F" d="M87.8,125.7c-0.7,0-1.4-0.4-1.8-1.1c-4.2-8.4-12.7-13.6-22-13.6s-17.8,5.2-22,13.6c-0.5,1-1.7,1.4-2.7,0.9
			c-1-0.5-1.4-1.7-0.9-2.7C43.3,113.1,53.1,107,64,107s20.7,6,25.6,15.8c0.5,1,0.1,2.2-0.9,2.7C88.4,125.6,88.1,125.7,87.8,125.7z"
			/>
	</g>
</g>
</svg>
