<?xml version="1.0" encoding="utf-8"?>
<!-- Generator: Adobe Illustrator 16.0.0, SVG Export Plug-In . SVG Version: 6.00 Build 0)  -->
<!DOCTYPE svg PUBLIC "-//W3C//DTD SVG 1.1//EN" "http://www.w3.org/Graphics/SVG/1.1/DTD/svg11.dtd">
<svg version="1.1" id="Layer_1" xmlns="http://www.w3.org/2000/svg" xmlns:xlink="http://www.w3.org/1999/xlink" x="0px" y="0px"
	 width="52px" height="43px" viewBox="0 0 52 43" enable-background="new 0 0 52 43" xml:space="preserve">
<g>
	<defs>
		<rect id="SVGID_1_" width="52" height="43"/>
	</defs>
	<clipPath id="SVGID_2_">
		<use xlink:href="#SVGID_1_"  overflow="visible"/>
	</clipPath>
	<path clip-path="url(#SVGID_2_)" d="M13.447,34H50v5H13.501C14.093,40.943,15,43,15,43L0,36.5L15,30C15,30,14.036,31.99,13.447,34
		 M38.515,4H11v5h27.538C37.948,10.99,37,13,37,13l15-6.5L37,0C37,0,37.922,2.041,38.515,4 M11,19h39v5H11V19z M4,19h5v5H4V19z M4,4
		h5v5H4V4z"/>
</g>
</svg>
