<?xml version="1.0" encoding="UTF-8" standalone="no"?>
<svg width="15px" height="15px" viewBox="0 0 15 15" version="1.1" xmlns="http://www.w3.org/2000/svg" xmlns:xlink="http://www.w3.org/1999/xlink" xmlns:sketch="http://www.bohemiancoding.com/sketch/ns">
    <!-- Generator: Sketch 3.4.4 (17249) - http://www.bohemiancoding.com/sketch -->
    <title>config-w</title>
    <desc>Created with Sketch.</desc>
    <defs></defs>
    <g id="Files-UserFLow" stroke="none" stroke-width="1" fill="none" fill-rule="evenodd" sketch:type="MSPage">
        <g id="config-w" sketch:type="MSLayerGroup">
            <rect id="Rectangle-12" sketch:type="MSShapeGroup" x="0" y="0" width="15" height="15"></rect>
            <path d="M7.50412158,9.12277843 C8.33596314,9.12277843 9.01030396,8.4520299 9.01030396,7.62461964 C9.01030396,6.79720939 8.33596314,6.12646085 7.50412158,6.12646085 C6.67228003,6.12646085 5.99793921,6.79720939 5.99793921,7.62461964 C5.99793921,8.4520299 6.67228003,9.12277843 7.50412158,9.12277843 L7.50412158,9.12277843 Z M7.50412158,10.1227784 L7.50412158,10.1227784 C6.12118743,10.1227784 4.99793921,9.00551386 4.99793921,7.62461964 C4.99793921,6.24372542 6.12118743,5.12646085 7.50412158,5.12646085 C8.88705573,5.12646085 10.010304,6.24372542 10.010304,7.62461964 C10.010304,9.00551386 8.88705573,10.1227784 7.50412158,10.1227784 L7.50412158,10.1227784 Z" id="Shape" fill="#FFFFFF" sketch:type="MSShapeGroup"></path>
            <path d="M6.69934682,11.6617047 L5.10157338,13.5175737 L5.63940354,13.369721 C5.13301342,13.1999769 4.65186364,12.9612894 4.20762842,12.6607272 L4.4202808,13.1591656 L4.82585425,10.7885968 L4.86972421,10.5321777 L4.68492076,10.3490849 C4.48082468,10.146878 4.29886034,9.9233329 4.14248833,9.68250154 L4.00365733,9.46868541 L3.7490664,9.45546259 L1.43494619,9.33527294 L1.87886542,9.66360833 C1.6927607,9.15222727 1.57328785,8.61570891 1.52475119,8.06474769 L1.2709514,8.54489506 L3.27410746,7.42331112 L3.49729284,7.29834775 L3.52655384,7.04423881 C3.56178444,6.73828848 3.63187958,6.43980005 3.73499935,6.15315892 L3.82264879,5.90952055 L3.6742525,5.69733993 L2.33437158,3.78154557 L2.3561278,4.32072672 C2.6312306,3.85083205 2.96631111,3.42028187 3.35160154,3.04087439 L2.80254147,3.14363457 L5.00610373,4.09528103 L5.2403986,4.19646532 L5.45978841,4.06607951 C5.67917855,3.93569351 5.91060968,3.82657698 6.15118639,3.74042125 L6.39586354,3.65279708 L6.46473441,3.40219439 L7.11979529,1.01860281 L6.63767053,0.886104833 L6.70507712,1.38154035 C6.96698716,1.34590612 7.23230924,1.32791132 7.49995396,1.32791132 C7.76759867,1.32791132 8.03292075,1.34590612 8.2948308,1.38154035 L8.36223738,0.886104833 L7.88011262,1.01860281 L8.53515495,3.40212687 L8.60402959,3.65274328 L8.84872407,3.74036129 C9.08933748,3.82651798 9.32080361,3.9356421 9.54022592,4.06604172 L9.75961313,4.19642048 L9.99390264,4.09523851 L12.1973664,3.14363457 L11.6483064,3.04087439 C12.0335968,3.42028187 12.3686773,3.85083205 12.6437801,4.32072672 L12.6655363,3.78154557 L11.3257677,5.69717942 L11.1773644,5.90936997 L11.2650273,6.15301637 C11.3681852,6.43972928 11.4383015,6.73829655 11.4735345,7.04432927 L11.5027905,7.29844599 L11.7259822,7.42341287 L13.7289565,8.54489506 L13.4751567,8.06474769 C13.4266201,8.61570891 13.3071472,9.15222727 13.1210425,9.66360833 L13.5649617,9.33527294 L11.2510174,9.45545345 L10.9964258,9.46867631 L10.8575949,9.68249342 C10.7011886,9.92337885 10.5191786,10.1469703 10.3150278,10.349213 L10.1302059,10.5323076 L10.1740783,10.7887408 L10.5796271,13.1591656 L10.7922795,12.6607272 C10.3480443,12.9612894 9.8668945,13.1999769 9.36050437,13.369721 L9.89833453,13.5175737 L8.30057369,11.6617194 L8.13226075,11.4662181 L7.87539442,11.4900862 C7.75122106,11.5016245 7.6260206,11.507433 7.50003896,11.507433 C7.37400995,11.507433 7.24876274,11.5016201 7.1245435,11.4900732 L6.86766698,11.4661951 L6.69934682,11.6617047 L6.69934682,11.6617047 Z M7.45718345,12.3141491 L7.07826514,11.9879269 L7.03198678,12.4857806 C7.1869643,12.5001867 7.34309684,12.507433 7.50003896,12.507433 C7.65692205,12.507433 7.81299618,12.5001921 7.96791633,12.4857969 L7.92165537,11.9879415 L7.54273706,12.3141637 L9.1404979,14.1700181 L9.35973164,14.4246656 L9.67832806,14.3178708 C10.2710683,14.1191819 10.8337513,13.8400476 11.352653,13.4889672 L11.6196729,13.308306 L11.5653054,12.9905289 L11.1597566,10.6201041 L10.6669174,10.7044224 L11.018807,11.0596318 C11.2736736,10.8071472 11.5009336,10.5279681 11.6963076,10.2270675 L11.2769512,9.95478044 L11.3028851,10.4541074 L13.6168293,10.3339269 L13.9475092,10.3167522 L14.0607486,10.0055915 C14.2765908,9.41249721 14.4150924,8.79052614 14.4712988,8.15250234 L14.4996787,7.83034975 L14.2174991,7.67235498 L12.2145247,6.55087279 L11.9702534,6.98714283 L12.4669724,6.92995638 C12.4229068,6.54720423 12.3351281,6.1734273 12.2059761,5.81446741 L11.7355017,5.98374189 L12.1452357,6.27030436 L13.4850043,4.35467052 L13.668676,4.09205225 L13.5067605,3.81548937 C13.1872329,3.26971406 12.7979086,2.76946507 12.3499525,2.3283488 L12.1100248,2.09208448 L11.8008924,2.22558862 L9.59742863,3.17719256 L9.79566563,3.63621553 L10.0511054,3.20638935 C9.77666792,3.043295 9.48702663,2.90674435 9.18583535,2.79889648 L9.01727971,3.26962888 L9.49940447,3.1371309 L8.84436214,0.753606852 L8.75685396,0.435187942 L8.42964397,0.390669316 C8.12308856,0.348960852 7.8127264,0.327911323 7.49995396,0.327911323 C7.18718151,0.327911323 6.87681935,0.348960852 6.57026394,0.390669316 L6.24305395,0.435187942 L6.15554577,0.753606852 L5.50048488,3.13719843 L5.98260965,3.26969641 L5.8140329,2.79897156 C5.51288762,2.9068182 5.22329021,3.04335932 4.94889306,3.2064366 L5.20434074,3.63625806 L5.40257774,3.17723508 L3.19901548,2.22558862 L2.88988315,2.09208448 L2.64995541,2.3283488 C2.20199936,2.76946507 1.81267497,3.26971406 1.49314736,3.81548937 L1.33123188,4.09205225 L1.51490358,4.35467052 L2.8547845,6.27046488 L3.2645185,5.9839024 L2.79403765,5.81464589 C2.66493337,6.17351594 2.57718113,6.54719415 2.53311854,6.92984335 L3.02983619,6.98704108 L2.78556492,6.55077104 L0.782408863,7.67235498 L0.500229196,7.83034975 L0.528609071,8.15250234 C0.584815464,8.79052614 0.723317079,9.41249721 0.939159354,10.0055915 L1.05239873,10.3167522 L1.38307859,10.3339269 L3.6971988,10.4541166 L3.7231326,9.95478957 L3.30377688,10.2270776 C3.49910806,10.5279107 3.72631107,10.807032 3.98110947,11.0594719 L4.33301511,10.7042784 L3.84017598,10.61996 L3.43460253,12.9905289 L3.38023501,13.308306 L3.64725491,13.4889672 C4.16615664,13.8400476 4.72883962,14.1191819 5.32157985,14.3178708 L5.64017627,14.4246656 L5.85941001,14.1700181 L7.45718345,12.3141491 L7.45718345,12.3141491 Z" id="Shape" fill="#FFFFFF" sketch:type="MSShapeGroup"></path>
        </g>
    </g>
</svg>