<?xml version="1.0" encoding="UTF-8" standalone="no"?>
<svg width="13px" height="14px" viewBox="0 0 13 14" version="1.1" xmlns="http://www.w3.org/2000/svg" xmlns:xlink="http://www.w3.org/1999/xlink" xmlns:sketch="http://www.bohemiancoding.com/sketch/ns">
    <!-- Generator: Sketch 3.4.3 (16618) - http://www.bohemiancoding.com/sketch -->
    <title>config-active</title>
    <desc>Created with Sketch.</desc>
    <defs></defs>
    <g id="Files-UserFLow" stroke="none" stroke-width="1" fill="none" fill-rule="evenodd" sketch:type="MSPage">
        <g id="config-active" sketch:type="MSLayerGroup" transform="translate(-1.000000, 0.000000)">
            <rect id="Rectangle-12" sketch:type="MSShapeGroup" x="0" y="0" width="15" height="15"></rect>
            <path d="M7.07826514,11.9879269 L5.4804917,13.8437959 C4.92631322,13.658033 4.40489861,13.3978867 3.92744167,13.0748472 L4.33301511,10.7042784 C4.10407599,10.4774584 3.89937191,10.2262189 3.7231326,9.95478957 L1.40901239,9.83459993 C1.21062948,9.2894807 1.07970977,8.71058806 1.02668013,8.10862502 L3.02983619,6.98704108 C3.06991019,6.63902961 3.1496858,6.30310188 3.2645185,5.9839024 L1.92463758,4.06810804 C2.22283453,3.55876696 2.58539819,3.0936495 3.00077847,2.6846116 L5.20434074,3.63625806 C5.44968242,3.49044877 5.71006717,3.36729977 5.98260965,3.26969641 L6.63767053,0.886104833 C6.91978782,0.847721304 7.20761714,0.827911323 7.49995396,0.827911323 C7.79229078,0.827911323 8.0801201,0.847721304 8.36223738,0.886104833 L9.01727971,3.26962888 C9.28986416,3.36723348 9.5502883,3.4903912 9.79566563,3.63621553 L11.9991294,2.6846116 C12.4145097,3.0936495 12.7770734,3.55876696 13.0752703,4.06810804 L11.7355017,5.98374189 C11.8503766,6.30302037 11.9301766,6.63903675 11.9702534,6.98714283 L13.9732278,8.10862502 C13.9201981,8.71058806 13.7892784,9.2894807 13.5908955,9.83459993 L11.2769512,9.95478044 C11.1006733,10.2262707 10.8959178,10.4775623 10.6669174,10.7044224 L11.0724662,13.0748472 C10.5950093,13.3978867 10.0735947,13.658033 9.51941622,13.8437959 L7.92165537,11.9879415 C7.78284928,12.0008395 7.64221412,12.007433 7.50003896,12.007433 C7.35781006,12.007433 7.21712231,12.0008345 7.07826514,11.9879269 Z M7.5,9 C8.32842712,9 9,8.32842712 9,7.5 C9,6.67157288 8.32842712,6 7.5,6 C6.67157288,6 6,6.67157288 6,7.5 C6,8.32842712 6.67157288,9 7.5,9 Z" id="Star-1" fill="#000000" sketch:type="MSShapeGroup"></path>
        </g>
    </g>
</svg>