<?xml version="1.0" encoding="UTF-8" standalone="no"?>
<svg width="13px" height="13px" viewBox="0 0 13 13" version="1.1" xmlns="http://www.w3.org/2000/svg" xmlns:xlink="http://www.w3.org/1999/xlink" xmlns:sketch="http://www.bohemiancoding.com/sketch/ns">
    <!-- Generator: Sketch 3.4.4 (17249) - http://www.bohemiancoding.com/sketch -->
    <title>dashboard-w</title>
    <desc>Created with Sketch.</desc>
    <defs></defs>
    <g id="Files-UserFLow" stroke="none" stroke-width="1" fill="none" fill-rule="evenodd" sketch:type="MSPage">
        <g id="dashboard-w" sketch:type="MSLayerGroup" transform="translate(-1.000000, -1.000000)">
            <rect id="Rectangle-12" sketch:type="MSShapeGroup" x="0" y="0" width="15" height="15"></rect>
            <path d="M2,2.0093689 L2,2.0093689 L2,3.9906311 C2,4.00423352 1.99581998,4 1.99077797,4 L6.00922203,4 C5.99625839,4 6,3.99620772 6,3.9906311 L6,2.0093689 C6,1.99576648 6.00418002,2 6.00922203,2 L1.99077797,2 C2.00374161,2 2,2.00379228 2,2.0093689 L2,2.0093689 Z M1,2.0093689 C1,1.45190985 1.45097518,1 1.99077797,1 L6.00922203,1 C6.55641359,1 7,1.44335318 7,2.0093689 L7,3.9906311 C7,4.54809015 6.54902482,5 6.00922203,5 L1.99077797,5 C1.44358641,5 1,4.55664682 1,3.9906311 L1,2.0093689 L1,2.0093689 Z" id="Shape" fill="#FFFFFF" sketch:type="MSShapeGroup"></path>
            <path d="M2,6.99703014 L2,6.99703014 L2,13.0029699 C2,12.9993984 2.00059509,13 1.99077797,13 L6.00922203,13 C5.99903378,13 6,12.9990327 6,13.0029699 L6,6.99703014 C6,7.0006016 5.99940491,7 6.00922203,7 L1.99077797,7 C2.00096622,7 2,7.00096733 2,6.99703014 L2,6.99703014 Z M1,6.99703014 C1,6.4463856 1.45097518,6 1.99077797,6 L6.00922203,6 C6.55641359,6 7,6.45303631 7,6.99703014 L7,13.0029699 C7,13.5536144 6.54902482,14 6.00922203,14 L1.99077797,14 C1.44358641,14 1,13.5469637 1,13.0029699 L1,6.99703014 L1,6.99703014 Z" id="Shape" fill="#FFFFFF" sketch:type="MSShapeGroup"></path>
            <path d="M9,1.99703014 L9,1.99703014 L9,8.00296986 C9,7.9993984 9.00059509,8 8.99077797,8 L13.009222,8 C12.9990338,8 13,7.99903267 13,8.00296986 L13,1.99703014 C13,2.0006016 12.9994049,2 13.009222,2 L8.99077797,2 C9.00096622,2 9,2.00096733 9,1.99703014 L9,1.99703014 Z M8,1.99703014 C8,1.4463856 8.45097518,1 8.99077797,1 L13.009222,1 C13.5564136,1 14,1.45303631 14,1.99703014 L14,8.00296986 C14,8.5536144 13.5490248,9 13.009222,9 L8.99077797,9 C8.44358641,9 8,8.54696369 8,8.00296986 L8,1.99703014 L8,1.99703014 Z" id="Shape" fill="#FFFFFF" sketch:type="MSShapeGroup"></path>
            <path d="M9,11.0093689 L9,11.0093689 L9,12.9906311 C9,13.0042335 8.99581998,13 8.99077797,13 L13.009222,13 C12.9962584,13 13,12.9962077 13,12.9906311 L13,11.0093689 C13,10.9957665 13.00418,11 13.009222,11 L8.99077797,11 C9.00374161,11 9,11.0037923 9,11.0093689 L9,11.0093689 Z M8,11.0093689 C8,10.4519098 8.45097518,10 8.99077797,10 L13.009222,10 C13.5564136,10 14,10.4433532 14,11.0093689 L14,12.9906311 C14,13.5480902 13.5490248,14 13.009222,14 L8.99077797,14 C8.44358641,14 8,13.5566468 8,12.9906311 L8,11.0093689 L8,11.0093689 Z" id="Shape" fill="#FFFFFF" sketch:type="MSShapeGroup"></path>
        </g>
    </g>
</svg>