<?xml version="1.0" encoding="UTF-8" standalone="no"?>
<svg width="9px" height="11px" viewBox="0 0 9 11" version="1.1" xmlns="http://www.w3.org/2000/svg" xmlns:xlink="http://www.w3.org/1999/xlink" xmlns:sketch="http://www.bohemiancoding.com/sketch/ns">
    <!-- Generator: Sketch 3.4.1 (15681) - http://www.bohemiancoding.com/sketch -->
    <title>lock</title>
    <desc>Created with Sketch.</desc>
    <defs></defs>
    <g id="Files-UserFLow" stroke="none" stroke-width="1" fill="none" fill-rule="evenodd" sketch:type="MSPage">
        <path d="M5.874,2.873 C5.874,3.489 5.863,4.094 5.863,4.71 L2.2,4.71 L2.2,2.873 C2.2,1.861 2.871,1.773 3.696,1.773 L4.389,1.773 C5.214,1.773 5.874,1.872 5.874,2.873 L5.874,2.873 Z M8.063,5.436 C8.063,5.029 7.733,4.71 7.337,4.71 L7.337,2.873 C7.337,0.695 5.896,0.31 4.037,0.31 C2.167,0.31 0.737,0.695 0.737,2.873 L0.737,4.71 C0.33,4.71 0,5.029 0,5.436 L0,9.836 C0,10.243 0.33,10.573 0.737,10.573 L7.337,10.573 C7.733,10.573 8.063,10.243 8.063,9.836 L8.063,5.436 Z" id="lock" fill="#FFFFFF" sketch:type="MSShapeGroup"></path>
    </g>
</svg>