<?xml version="1.0" encoding="UTF-8" standalone="no"?>
<svg width="26px" height="24px" viewBox="0 0 26 24" version="1.1" xmlns="http://www.w3.org/2000/svg" xmlns:xlink="http://www.w3.org/1999/xlink" xmlns:sketch="http://www.bohemiancoding.com/sketch/ns">
    <!-- Generator: Sketch 3.4.1 (15681) - http://www.bohemiancoding.com/sketch -->
    <title>rect-active</title>
    <desc>Created with Sketch.</desc>
    <defs></defs>
    <g id="Files-UserFLow" stroke="none" stroke-width="1" fill="none" fill-rule="evenodd" sketch:type="MSPage">
        <g id="rect-active" sketch:type="MSLayerGroup" transform="translate(-2.000000, -3.000000)">
            <rect id="Rectangle-1" sketch:type="MSShapeGroup" x="0" y="0" width="30" height="30"></rect>
            <path d="M25.5,8 C26.8807119,8 28,6.88071187 28,5.5 C28,4.11928813 26.8807119,3 25.5,3 C24.1192881,3 23,4.11928813 23,5.5 C23,6.88071187 24.1192881,8 25.5,8 Z" id="Oval-10" fill="#FF6714" sketch:type="MSShapeGroup"></path>
            <path d="M25.5,27 C26.8807119,27 28,25.8807119 28,24.5 C28,23.1192881 26.8807119,22 25.5,22 C24.1192881,22 23,23.1192881 23,24.5 C23,25.8807119 24.1192881,27 25.5,27 Z" id="Oval-10-Copy" fill="#FF6714" sketch:type="MSShapeGroup"></path>
            <path d="M4.5,27 C5.88071187,27 7,25.8807119 7,24.5 C7,23.1192881 5.88071187,22 4.5,22 C3.11928813,22 2,23.1192881 2,24.5 C2,25.8807119 3.11928813,27 4.5,27 Z" id="Oval-10-Copy-2" fill="#FF6714" sketch:type="MSShapeGroup"></path>
            <path d="M4.5,8 C5.88071187,8 7,6.88071187 7,5.5 C7,4.11928813 5.88071187,3 4.5,3 C3.11928813,3 2,4.11928813 2,5.5 C2,6.88071187 3.11928813,8 4.5,8 Z" id="Oval-10-Copy-3" fill="#FF6714" sketch:type="MSShapeGroup"></path>
            <path d="M4,6 L4,6 L5,5 L5,25 L4,24 L26,24 L25,25 L25,5 L26,6 L4,6 Z M4,5 L26,5 L26,25 L4,25 L4,5 L4,5 Z" id="Shape" fill="#FF6714" sketch:type="MSShapeGroup"></path>
            <rect id="Rectangle-66" opacity="0.299999982" fill="#FF6714" sketch:type="MSShapeGroup" x="4" y="5" width="22" height="20"></rect>
        </g>
    </g>
</svg>