<?xml version="1.0" encoding="utf-8"?>
<!-- Generator: Adobe Illustrator 16.0.0, SVG Export Plug-In . SVG Version: 6.00 Build 0)  -->
<!DOCTYPE svg PUBLIC "-//W3C//DTD SVG 1.1//EN" "http://www.w3.org/Graphics/SVG/1.1/DTD/svg11.dtd">
<svg version="1.1" id="Layer_1" xmlns="http://www.w3.org/2000/svg" xmlns:xlink="http://www.w3.org/1999/xlink" x="0px" y="0px"
	 width="88.26px" height="88.014px" viewBox="0 0 88.26 88.014" enable-background="new 0 0 88.26 88.014" xml:space="preserve">
<g>
	<defs>
		<rect id="SVGID_1_" width="88.26" height="88.014"/>
	</defs>
	<clipPath id="SVGID_2_">
		<use xlink:href="#SVGID_1_"  overflow="visible"/>
	</clipPath>
	<path clip-path="url(#SVGID_2_)" d="M23.141,27.554l-19.09,7.51c-2.28,0.9-4.1-0.37-4.05-2.82l0.41-20.49
		c0.05-2.45,1.73-3.31,3.73-1.91l7.23,5C17.92,7.419,26.8,2.443,36.551,0.734c2.856-0.526,5.756-0.77,8.66-0.73
		c19.332,0.411,36.131,13.395,41.4,32c0.393,1.393,0.726,2.813,1,4.26c0.133,0.74,0.247,1.48,0.339,2.22v0.32
		c0.081,0.64,0.151,1.28,0.19,1.92v0.08c1.573,21.502-12.663,40.976-33.63,46l-0.25,0.061c-0.727,0.165-1.46,0.316-2.199,0.448
		c-2.592,0.465-5.219,0.7-7.851,0.701c-8.945-0.006-17.672-2.761-25-7.89c-0.07-0.12-0.15-0.12-0.23-0.23
		C9.526,73.25,3.078,63.14,1.041,51.764c-0.395-1.802,0.745-3.583,2.547-3.978c1.801-0.396,3.583,0.745,3.978,2.547
		c0.018,0.083,0.033,0.167,0.045,0.251c3.39,18.773,20.391,31.972,39.42,30.6h0.109c0.58,0,1.16-0.109,1.75-0.18h0.141
		c0.626-0.08,1.256-0.177,1.89-0.29c14.011-2.558,25.347-12.864,29.22-26.57l0.07-0.25c0.11-0.41,0.21-0.81,0.311-1.22
		c0.05-0.22,0.109-0.45,0.159-0.67c0.051-0.22,0.11-0.55,0.171-0.82c0.059-0.27,0.139-0.729,0.199-1.1c0-0.13,0-0.271,0.061-0.41
		c1.241-8.204-0.271-16.587-4.3-23.84l-0.141-0.26c-0.2-0.36-0.42-0.72-0.64-1.07l-0.371-0.6l-0.469-0.7
		c-0.21-0.31-0.41-0.61-0.63-0.91l-0.261-0.35c-0.3-0.4-0.59-0.8-0.899-1.19c-4.494-5.615-10.505-9.822-17.32-12.12h-0.1
		c-0.45-0.15-0.91-0.29-1.37-0.42l-0.471-0.21l-1-0.26l-0.88-0.21l-0.63-0.13l-1.279-0.24h-0.24
		c-12.298-1.914-24.742,2.42-33.19,11.56l6.69,4.66C25.621,24.784,25.401,26.654,23.141,27.554 M61.011,60.875
		c1.17-1.171,1.17-3.068,0-4.24l-13.87-13.87v-23.76c0-1.657-1.343-3-3-3c-1.657,0-3,1.343-3,3v25c0,0.795,0.317,1.557,0.88,2.12
		l14.75,14.75C57.942,62.044,59.84,62.044,61.011,60.875"/>
</g>
</svg>
