<?xml version="1.0" encoding="UTF-8" standalone="no"?>
<svg width="40px" height="30px" viewBox="0 0 40 30" version="1.1" xmlns="http://www.w3.org/2000/svg" xmlns:xlink="http://www.w3.org/1999/xlink" xmlns:sketch="http://www.bohemiancoding.com/sketch/ns">
    <!-- Generator: Sketch 3.4.4 (17249) - http://www.bohemiancoding.com/sketch -->
    <title>type-episode</title>
    <desc>Created with Sketch.</desc>
    <defs></defs>
    <g id="Icons" stroke="none" stroke-width="1" fill="none" fill-rule="evenodd" sketch:type="MSPage">
        <g id="Artboard-1" sketch:type="MSArtboardGroup" transform="translate(-6806.000000, -4349.000000)" fill="#979797">
            <path d="M6806,4350.99162 C6806,4349.89168 6806.89154,4349 6807.99729,4349 L6844.00271,4349 C6845.10578,4349 6846,4349.89784 6846,4350.99162 L6846,4377.00838 C6846,4378.10832 6845.10846,4379 6844.00271,4379 L6807.99729,4379 C6806.89422,4379 6806,4378.10216 6806,4377.00838 L6806,4350.99162 L6806,4350.99162 Z M6807,4350.99162 L6807,4377.00838 C6807,4377.55184 6807.44847,4378 6807.99729,4378 L6844.00271,4378 C6844.55568,4378 6845,4377.55653 6845,4377.00838 L6845,4350.99162 C6845,4350.44816 6844.55153,4350 6844.00271,4350 L6807.99729,4350 C6807.44432,4350 6807,4350.44347 6807,4350.99162 Z M6807,4374 L6845,4374 L6845,4375 L6807,4375 L6807,4374 Z M6822,4358.22938 C6822,4357.12329 6822.7735,4356.68369 6823.71875,4357.24225 L6831.28125,4361.711 C6832.23049,4362.27191 6832.2265,4363.18369 6831.28125,4363.74225 L6823.71875,4368.211 C6822.76951,4368.77191 6822,4368.33308 6822,4367.22386 L6822,4358.22938 Z M6823,4358.22938 L6823,4367.22386 C6823,4367.55873 6822.92736,4367.5171 6823.21002,4367.35007 L6830.77252,4362.88132 C6831.06476,4362.70863 6831.06471,4362.74458 6830.77252,4362.57192 L6823.21002,4358.10317 C6822.93067,4357.9381 6823,4357.89842 6823,4358.22938 Z" id="type-episode" sketch:type="MSShapeGroup"></path>
        </g>
    </g>
</svg>