<?xml version="1.0" encoding="UTF-8" standalone="no"?>
<svg width="22px" height="20px" viewBox="0 0 22 20" version="1.1" xmlns="http://www.w3.org/2000/svg" xmlns:xlink="http://www.w3.org/1999/xlink" xmlns:sketch="http://www.bohemiancoding.com/sketch/ns">
    <!-- Generator: Sketch 3.4 (15588) - http://www.bohemiancoding.com/sketch -->
    <title>advanced-search</title>
    <desc>Created with Sketch.</desc>
    <defs></defs>
    <g id="Page-1" stroke="none" stroke-width="1" fill="none" fill-rule="evenodd" sketch:type="MSPage">
        <g id="Desktop-HD-Copy-9" sketch:type="MSArtboardGroup" transform="translate(-553.000000, -70.000000)" fill="#999999">
            <path d="M561.708022,86 L554.002462,86 C553.439458,86 553,86.4477153 553,87 C553,87.5561352 553.448817,88 554.002462,88 L561.708022,88 C562.0938,88.8829524 562.97484,89.5 564,89.5 C565.02516,89.5 565.9062,88.8829524 566.291978,88 L573.997538,88 C574.560542,88 575,87.5522847 575,87 C575,86.4438648 574.551183,86 573.997538,86 L566.291978,86 C565.9062,85.1170476 565.02516,84.5 564,84.5 C562.97484,84.5 562.0938,85.1170476 561.708022,86 Z M567.708022,79 L554.002462,79 C553.439458,79 553,79.4477153 553,80 C553,80.5561352 553.448817,81 554.002462,81 L567.708022,81 C568.0938,81.8829524 568.97484,82.5 570,82.5 C571.02516,82.5 571.9062,81.8829524 572.291978,81 L573.997538,81 C574.560542,81 575,80.5522847 575,80 C575,79.4438648 574.551183,79 573.997538,79 L572.291978,79 C571.9062,78.1170476 571.02516,77.5 570,77.5 C568.97484,77.5 568.0938,78.1170476 567.708022,79 Z M556.708022,72 L554.002462,72 C553.439458,72 553,72.4477153 553,73 C553,73.5561352 553.448817,74 554.002462,74 L556.708022,74 C557.0938,74.8829524 557.97484,75.5 559,75.5 C560.02516,75.5 560.9062,74.8829524 561.291978,74 L573.997538,74 C574.560542,74 575,73.5522847 575,73 C575,72.4438648 574.551183,72 573.997538,72 L561.291978,72 C560.9062,71.1170476 560.02516,70.5 559,70.5 C557.97484,70.5 557.0938,71.1170476 556.708022,72 Z M570,81.5 C569.171573,81.5 568.5,80.8284271 568.5,80 C568.5,79.1715729 569.171573,78.5 570,78.5 C570.828427,78.5 571.5,79.1715729 571.5,80 C571.5,80.8284271 570.828427,81.5 570,81.5 Z M559,74.5 C558.171573,74.5 557.5,73.8284271 557.5,73 C557.5,72.1715729 558.171573,71.5 559,71.5 C559.828427,71.5 560.5,72.1715729 560.5,73 C560.5,73.8284271 559.828427,74.5 559,74.5 Z M564,88.5 C563.171573,88.5 562.5,87.8284271 562.5,87 C562.5,86.1715729 563.171573,85.5 564,85.5 C564.828427,85.5 565.5,86.1715729 565.5,87 C565.5,87.8284271 564.828427,88.5 564,88.5 Z" id="advanced-search" sketch:type="MSShapeGroup"></path>
        </g>
    </g>
</svg>