<?xml version="1.0" encoding="UTF-8" standalone="no"?>
<svg width="15px" height="17px" viewBox="0 0 15 17" version="1.1" xmlns="http://www.w3.org/2000/svg" xmlns:xlink="http://www.w3.org/1999/xlink" xmlns:sketch="http://www.bohemiancoding.com/sketch/ns">
    <!-- Generator: Sketch 3.4 (15588) - http://www.bohemiancoding.com/sketch -->
    <title>delete-active</title>
    <desc>Created with Sketch.</desc>
    <defs></defs>
    <g id="Files-UserFLow" stroke="none" stroke-width="1" fill="none" fill-rule="evenodd" sketch:type="MSPage">
        <g id="delete-active" sketch:type="MSLayerGroup" fill="#FFFFFF">
            <g id="Delete-icon.-Hover" sketch:type="MSShapeGroup">
                <g id="Page-1">
                    <g id="Library-Copy">
                        <path d="M5,1 L0,1 L0,2 L15,2 L15,1 L10,1 C10,0.44386 9.552371,0 9.000193,0 L5.999807,0 C5.443717,0 5,0.44772 5,1 L5,1 Z M1,2 L14,2 L14,15.00812 C14,16.1082 13.106457,17 11.99724,17 L3.00276,17 C1.896666,17 1,16.1066 1,15.00812 L1,2 L1,2 Z M7,4 L8,4 L8,14 L7,14 L7,4 L7,4 Z M4,4 L5,4 L5,14 L4,14 L4,4 L4,4 Z M10,4 L11,4 L11,14 L10,14 L10,4 L10,4 Z" id="Delete-icon.-Hover"></path>
                    </g>
                </g>
            </g>
        </g>
    </g>
</svg>