<?xml version="1.0" encoding="UTF-8" standalone="no"?>
<svg width="13px" height="13px" viewBox="0 0 13 13" version="1.1" xmlns="http://www.w3.org/2000/svg" xmlns:xlink="http://www.w3.org/1999/xlink" xmlns:sketch="http://www.bohemiancoding.com/sketch/ns">
    <!-- Generator: Sketch 3.4.4 (17249) - http://www.bohemiancoding.com/sketch -->
    <title>manageWidget-w</title>
    <desc>Created with Sketch.</desc>
    <defs></defs>
    <g id="Files-UserFLow" stroke="none" stroke-width="1" fill="none" fill-rule="evenodd" sketch:type="MSPage">
        <g id="manageWidget-w" sketch:type="MSLayerGroup" transform="translate(-1.000000, -1.000000)">
            <rect id="Rectangle-12" sketch:type="MSShapeGroup" x="0" y="0" width="15" height="15"></rect>
            <path d="M2,1.99077797 L2,1.99077797 L2,6.00922203 C2,6.00043885 1.9995634,6 1.99077797,6 L6.00922203,6 C6.00043885,6 6,6.0004366 6,6.00922203 L6,1.99077797 C6,1.99956115 6.0004366,2 6.00922203,2 L1.99077797,2 C1.99956115,2 2,1.9995634 2,1.99077797 L2,1.99077797 Z M1,1.99077797 C1,1.44358641 1.45097518,1 1.99077797,1 L6.00922203,1 C6.55641359,1 7,1.45097518 7,1.99077797 L7,6.00922203 C7,6.55641359 6.54902482,7 6.00922203,7 L1.99077797,7 C1.44358641,7 1,6.54902482 1,6.00922203 L1,1.99077797 L1,1.99077797 Z" id="Shape" fill="#FFFFFF" sketch:type="MSShapeGroup"></path>
            <path d="M2,8.99077797 L2,8.99077797 L2,13.009222 C2,13.0004389 1.9995634,13 1.99077797,13 L6.00922203,13 C6.00043885,13 6,13.0004366 6,13.009222 L6,8.99077797 C6,8.99956115 6.0004366,9 6.00922203,9 L1.99077797,9 C1.99956115,9 2,8.9995634 2,8.99077797 L2,8.99077797 Z M1,8.99077797 C1,8.44358641 1.45097518,8 1.99077797,8 L6.00922203,8 C6.55641359,8 7,8.45097518 7,8.99077797 L7,13.009222 C7,13.5564136 6.54902482,14 6.00922203,14 L1.99077797,14 C1.44358641,14 1,13.5490248 1,13.009222 L1,8.99077797 L1,8.99077797 Z" id="Shape" fill="#FFFFFF" sketch:type="MSShapeGroup"></path>
            <path d="M9,1.99077797 L9,1.99077797 L9,6.00922203 C9,6.00043885 8.9995634,6 8.99077797,6 L13.009222,6 C13.0004389,6 13,6.0004366 13,6.00922203 L13,1.99077797 C13,1.99956115 13.0004366,2 13.009222,2 L8.99077797,2 C8.99956115,2 9,1.9995634 9,1.99077797 L9,1.99077797 Z M8,1.99077797 C8,1.44358641 8.45097518,1 8.99077797,1 L13.009222,1 C13.5564136,1 14,1.45097518 14,1.99077797 L14,6.00922203 C14,6.55641359 13.5490248,7 13.009222,7 L8.99077797,7 C8.44358641,7 8,6.54902482 8,6.00922203 L8,1.99077797 L8,1.99077797 Z" id="Shape" fill="#FFFFFF" sketch:type="MSShapeGroup"></path>
            <path d="M9,8.99077797 L9,8.99077797 L9,13.009222 C9,13.0004389 8.9995634,13 8.99077797,13 L13.009222,13 C13.0004389,13 13,13.0004366 13,13.009222 L13,8.99077797 C13,8.99956115 13.0004366,9 13.009222,9 L8.99077797,9 C8.99956115,9 9,8.9995634 9,8.99077797 L9,8.99077797 Z M8,8.99077797 C8,8.44358641 8.45097518,8 8.99077797,8 L13.009222,8 C13.5564136,8 14,8.45097518 14,8.99077797 L14,13.009222 C14,13.5564136 13.5490248,14 13.009222,14 L8.99077797,14 C8.44358641,14 8,13.5490248 8,13.009222 L8,8.99077797 L8,8.99077797 Z" id="Shape" fill="#FFFFFF" sketch:type="MSShapeGroup"></path>
        </g>
    </g>
</svg>