<?xml version="1.0" encoding="UTF-8" standalone="no"?>
<svg width="20px" height="16px" viewBox="0 0 20 16" version="1.1" xmlns="http://www.w3.org/2000/svg" xmlns:xlink="http://www.w3.org/1999/xlink" xmlns:sketch="http://www.bohemiancoding.com/sketch/ns">
    <!-- Generator: Sketch 3.4 (15588) - http://www.bohemiancoding.com/sketch -->
    <title>mcollType</title>
    <desc>Created with Sketch.</desc>
    <defs></defs>
    <g id="Page-1" stroke="none" stroke-width="1" fill="none" fill-rule="evenodd" sketch:type="MSPage">
        <g id="mcollType" sketch:type="MSLayerGroup" fill="#FFFFFF" fill-opacity="0.602836277">
            <path d="M1,2.00585866 L1,2.00585866 L1,11.9941413 C1,12.5514374 1.44630695,13 1.99508929,13 L16.0049107,13 C16.5536259,13 17,12.5511217 17,11.9941413 L17,2.00585866 C17,1.44856259 16.553693,1 16.0049107,1 L1.99508929,1 C1.44637411,1 1,1.44887827 1,2.00585866 L1,2.00585866 Z M0,2.00585866 C0,0.898053512 0.892622799,0 1.99508929,0 L16.0049107,0 C17.1067681,0 18,0.897060126 18,2.00585866 L18,11.9941413 C18,13.1019465 17.1073772,14 16.0049107,14 L1.99508929,14 C0.893231902,14 0,13.1029399 0,11.9941413 L0,2.00585866 L0,2.00585866 Z" id="Shape" sketch:type="MSShapeGroup"></path>
            <path d="M19,2.26670618 C19.5976873,2.61295367 20,3.26172256 20,4.00585866 L20,12.0068977 C20,14.2122272 18.2082844,16 16.0052166,16 L3.99508929,16 C3.25764648,16 2.61365236,15.5981838 2.26834121,15 L15.9998779,15 C17.6639569,15 19,13.6571128 19,12.0005775 L19,2.26670618 Z" id="Shape" sketch:type="MSShapeGroup"></path>
            <path d="M5.594446,3.91249649 C5.81842729,3.4085386 6.23540497,3.39234161 6.51571839,3.85953064 L8.48428161,7.14046936 C8.76910501,7.61517502 9.42807007,7.89298248 9.96828842,7.75792789 L12.0317116,7.24207211 C12.5664825,7.10837937 13.235405,7.39234161 13.5157184,7.85953064 L15.4842816,11.1404694 C15.769105,11.615175 15.5500512,12 14.9931545,12 L3.00684547,12 C2.45078007,12 2.18226576,11.589902 2.405554,11.0875035 L5.594446,3.91249649 Z" id="Rectangle-7" sketch:type="MSShapeGroup"></path>
            <circle id="Oval-2" sketch:type="MSShapeGroup" cx="14" cy="4" r="1"></circle>
        </g>
    </g>
</svg>