<?xml version="1.0" encoding="UTF-8" standalone="no"?>
<svg width="12px" height="9px" viewBox="0 0 12 9" version="1.1" xmlns="http://www.w3.org/2000/svg" xmlns:xlink="http://www.w3.org/1999/xlink" xmlns:sketch="http://www.bohemiancoding.com/sketch/ns">
    <!-- Generator: Sketch 3.4.2 (15857) - http://www.bohemiancoding.com/sketch -->
    <title>photo-type</title>
    <desc>Created with Sketch.</desc>
    <defs></defs>
    <g id="Files-UserFLow" stroke="none" stroke-width="1" fill="none" fill-rule="evenodd" sketch:type="MSPage">
        <g id="photo-type" sketch:type="MSLayerGroup" transform="translate(-2.000000, -3.000000)">
            <rect id="Rectangle-69" sketch:type="MSShapeGroup" x="0" y="0" width="16" height="16"></rect>
            <path d="M4.26810845,4 L3.00247329,4 C2.45576096,4 2,4.4463856 2,4.99703014 L2,11.0029699 C2,11.5469637 2.44882258,12 3.00247329,12 L12.9975267,12 C13.544239,12 14,11.5536144 14,11.0029699 L14,4.99703014 C14,4.45303631 13.5511774,4 12.9975267,4 L9.73468778,4 C9.38972838,3.40026186 8.743007,3 8.00208688,3 L5.99791312,3 C5.26092614,3 4.61439792,3.40219863 4.26810845,4 Z M7,11 C8.65685425,11 10,9.65685425 10,8 C10,6.34314575 8.65685425,5 7,5 C5.34314575,5 4,6.34314575 4,8 C4,9.65685425 5.34314575,11 7,11 Z M7,10 C8.1045695,10 9,9.1045695 9,8 C9,6.8954305 8.1045695,6 7,6 C5.8954305,6 5,6.8954305 5,8 C5,9.1045695 5.8954305,10 7,10 Z M12.5,6 C12.7761424,6 13,5.77614237 13,5.5 C13,5.22385763 12.7761424,5 12.5,5 C12.2238576,5 12,5.22385763 12,5.5 C12,5.77614237 12.2238576,6 12.5,6 Z" id="Rectangle-70" fill="#525252" sketch:type="MSShapeGroup"></path>
        </g>
    </g>
</svg>