<?xml version="1.0" encoding="UTF-8" standalone="no"?>
<svg width="30px" height="30px" viewBox="0 0 30 30" version="1.1" xmlns="http://www.w3.org/2000/svg" xmlns:xlink="http://www.w3.org/1999/xlink" xmlns:sketch="http://www.bohemiancoding.com/sketch/ns">
    <!-- Generator: Sketch 3.4.1 (15681) - http://www.bohemiancoding.com/sketch -->
    <title>point</title>
    <desc>Created with Sketch.</desc>
    <defs></defs>
    <g id="Files-UserFLow" stroke="none" stroke-width="1" fill="none" fill-rule="evenodd" sketch:type="MSPage">
        <g id="point" sketch:type="MSLayerGroup">
            <rect id="Rectangle-1" sketch:type="MSShapeGroup" x="0" y="0" width="30" height="30"></rect>
            <circle id="Oval-1" opacity="0.299032183" fill="#FFFFFF" sketch:type="MSShapeGroup" cx="15" cy="15" r="14"></circle>
            <path d="M15,29.5 C23.0081289,29.5 29.5,23.0081289 29.5,15 C29.5,6.99187113 23.0081289,0.5 15,0.5 C6.99187113,0.5 0.5,6.99187113 0.5,15 C0.5,23.0081289 6.99187113,29.5 15,29.5 L15,29.5 Z M15,28.5 C7.54415588,28.5 1.5,22.4558441 1.5,15 C1.5,7.54415588 7.54415588,1.5 15,1.5 C22.4558441,1.5 28.5,7.54415588 28.5,15 C28.5,22.4558441 22.4558441,28.5 15,28.5 L15,28.5 Z" id="Shape" fill="#FFFFFF" sketch:type="MSShapeGroup"></path>
            <circle id="Oval-2" fill="#FFFFFF" sketch:type="MSShapeGroup" cx="15" cy="15" r="4"></circle>
        </g>
    </g>
</svg>