<?xml version="1.0" encoding="utf-8"?>
<!-- Generator: Adobe Illustrator 18.1.1, SVG Export Plug-In . SVG Version: 6.00 Build 0)  -->
<svg version="1.1" id="Layer_1" xmlns="http://www.w3.org/2000/svg" xmlns:xlink="http://www.w3.org/1999/xlink" x="0px" y="0px"
	 viewBox="0 53 600 538" enable-background="new 0 53 600 538" xml:space="preserve">
<g>
	<path fill="#757575" d="M542.5,213.1h-201l95.4-95.4c2.5-2.5,3.9-5.9,3.9-9.4c0-3.6-1.4-6.9-3.9-9.4c-2.5-2.5-5.9-3.9-9.4-3.9
		c-3.6,0-6.9,1.4-9.4,3.9L306.4,210.5L167.7,71.9c-2.5-2.5-5.9-3.9-9.4-3.9c-3.6,0-6.9,1.4-9.4,3.9c-5.2,5.2-5.2,13.7,0,18.9
		l122.3,122.3H57.5c-11.8,0-21.5,9.6-21.5,21.5v318c0,11.8,9.6,21.5,21.5,21.5h485.1c11.8,0,21.5-9.6,21.5-21.5v-318
		C564,222.7,554.4,213.1,542.5,213.1z M555.9,552.5c0,7.4-6,13.3-13.4,13.3H57.5c-7.4,0-13.3-6-13.3-13.3v-318
		c0-7.4,6-13.3,13.3-13.3h233.3L154.6,85c-2-2-2-5.4,0-7.4c1-1,2.3-1.5,3.7-1.5c1.4,0,2.7,0.5,3.7,1.5L306.4,222l117.4-117.4
		c1-1,2.3-1.5,3.7-1.5s2.7,0.5,3.7,1.5c1,1,1.5,2.3,1.5,3.7s-0.5,2.7-1.5,3.7L321.9,221.2h220.6c7.4,0,13.3,6,13.3,13.3L555.9,552.5
		L555.9,552.5z"/>
	<path fill="#757575" d="M532.1,287.4h-74.3c-7.4,0-13.3,6-13.3,13.3s6,13.3,13.3,13.3h74.3c7.4,0,13.3-6,13.3-13.3
		S539.4,287.4,532.1,287.4z M532.1,305.9h-74.3c-2.9,0-5.2-2.3-5.2-5.2s2.3-5.2,5.2-5.2h74.3c2.9,0,5.2,2.3,5.2,5.2
		S535,305.9,532.1,305.9z"/>
	<path fill="#757575" d="M495,473.1c-17.6,0-31.9,14.3-31.9,31.9s14.3,31.9,31.9,31.9s31.9-14.3,31.9-31.9S512.6,473.1,495,473.1z
		 M495,528.8c-13.1,0-23.8-10.7-23.8-23.8c0-13.1,10.7-23.8,23.8-23.8c13.1,0,23.8,10.7,23.8,23.8
		C518.7,518.1,508.1,528.8,495,528.8z"/>
	<path fill="#757575" d="M412.6,250.2h-318c-11.8,0-21.5,9.6-21.5,21.5v243.7c0,11.8,9.6,21.5,21.5,21.5h318
		c11.8,0,21.5-9.6,21.5-21.5V271.7C434,259.9,424.4,250.2,412.6,250.2z M425.9,515.4c0,7.4-6,13.3-13.3,13.3h-318
		c-7.4,0-13.3-6-13.3-13.3V271.7c0-7.4,6-13.3,13.3-13.3h318c7.4,0,13.4,6,13.4,13.3L425.9,515.4L425.9,515.4z"/>
	<path fill="#757575" d="M532.1,324.5h-74.3c-7.4,0-13.3,6-13.3,13.3c0,7.4,6,13.3,13.3,13.3h74.3c7.4,0,13.3-6,13.3-13.3
		C545.4,330.5,539.4,324.5,532.1,324.5z M532.1,343.1h-74.3c-2.9,0-5.2-2.3-5.2-5.2c0-2.9,2.3-5.2,5.2-5.2h74.3
		c2.9,0,5.2,2.3,5.2,5.2C537.3,340.7,535,343.1,532.1,343.1z"/>
	<path fill="#757575" d="M532.1,250.2h-74.3c-7.4,0-13.3,6-13.3,13.3c0,7.4,6,13.3,13.3,13.3h74.3c7.4,0,13.3-6,13.3-13.3
		C545.4,256.2,539.4,250.2,532.1,250.2z M532.1,268.8h-74.3c-2.9,0-5.2-2.3-5.2-5.2c0-2.9,2.3-5.2,5.2-5.2h74.3
		c2.9,0,5.2,2.3,5.2,5.2C537.3,266.5,535,268.8,532.1,268.8z"/>
	<path fill="#757575" d="M495,398.8c-17.6,0-31.9,14.3-31.9,31.9s14.3,31.9,31.9,31.9s31.9-14.3,31.9-31.9S512.6,398.8,495,398.8z
		 M495,454.5c-13.1,0-23.8-10.7-23.8-23.8c0-13.1,10.7-23.8,23.8-23.8c13.1,0,23.8,10.7,23.8,23.8
		C518.7,443.8,508.1,454.5,495,454.5z"/>
</g>
</svg>
